<?xml version="1.0" encoding="utf-8"?>
<!-- Generator: Adobe Illustrator 17.0.0, SVG Export Plug-In . SVG Version: 6.00 Build 0)  -->
<!DOCTYPE svg PUBLIC "-//W3C//DTD SVG 1.1//EN" "http://www.w3.org/Graphics/SVG/1.1/DTD/svg11.dtd">
<svg version="1.1" id="Calque_1" xmlns="http://www.w3.org/2000/svg" xmlns:xlink="http://www.w3.org/1999/xlink" x="0px" y="0px"
	 width="106.06px" height="105.821px" viewBox="0 0 106.06 105.821" enable-background="new 0 0 106.06 105.821"
	 xml:space="preserve">
<g>
	<g>
		<path fill="#ECF0F1" d="M54.06,2.909c-27.571,0-50,22.431-50,50.002c0,27.57,22.429,50.002,50,50.002c27.57,0,50-22.432,50-50.002
			C104.06,25.34,81.63,2.909,54.06,2.909z M54.06,97.144c-24.39,0-44.23-19.843-44.23-44.233c0-24.391,19.84-44.232,44.23-44.232
			s44.23,19.842,44.23,44.232C98.29,77.301,78.45,97.144,54.06,97.144z"/>
	</g>
	<g>
		<path fill="#ECF0F1" d="M48.843,27.413c-1.127-1.127-2.952-1.127-4.079,0c-1.127,1.126-1.127,2.952,0,4.079l21.418,21.419
			L44.764,74.329c-1.127,1.127-1.127,2.952,0,4.079c0.563,0.563,1.302,0.845,2.04,0.845c0.738,0,1.476-0.281,2.04-0.845L72.3,54.95
			c1.127-1.127,1.127-2.952,0-4.079L48.843,27.413z"/>
	</g>
</g>
</svg>
