<?xml version="1.0" encoding="utf-8"?>
<!-- Generator: Adobe Illustrator 17.0.0, SVG Export Plug-In . SVG Version: 6.00 Build 0)  -->
<!DOCTYPE svg PUBLIC "-//W3C//DTD SVG 1.1//EN" "http://www.w3.org/Graphics/SVG/1.1/DTD/svg11.dtd">
<svg version="1.1" id="Calque_1" xmlns="http://www.w3.org/2000/svg" xmlns:xlink="http://www.w3.org/1999/xlink" x="0px" y="0px"
	 width="106.06px" height="105.821px" viewBox="0 0 106.06 105.821" enable-background="new 0 0 106.06 105.821"
	 xml:space="preserve">
<g>
	<g>
		<path fill="#ECF0F1" d="M54.06,102.913c27.571,0,50-22.431,50-50.002c0-27.57-22.429-50.002-50-50.002
			c-27.57,0-50,22.432-50,50.002C4.06,80.482,26.49,102.913,54.06,102.913z M54.06,8.678c24.39,0,44.23,19.843,44.23,44.233
			c0,24.391-19.84,44.232-44.23,44.232S9.83,77.301,9.83,52.911C9.83,28.521,29.67,8.678,54.06,8.678z"/>
	</g>
	<g>
		<path fill="#ECF0F1" d="M59.277,78.409c1.127,1.127,2.952,1.127,4.079,0c1.127-1.126,1.127-2.952,0-4.079L41.938,52.911
			l21.418-21.418c1.127-1.127,1.127-2.952,0-4.079c-0.563-0.563-1.302-0.845-2.04-0.845c-0.738,0-1.476,0.281-2.04,0.845
			L35.82,50.872c-1.127,1.127-1.127,2.952,0,4.079L59.277,78.409z"/>
	</g>
</g>
</svg>
