<?xml version="1.0" encoding="utf-8"?>
<!-- Generator: Adobe Illustrator 17.0.0, SVG Export Plug-In . SVG Version: 6.00 Build 0)  -->
<!DOCTYPE svg PUBLIC "-//W3C//DTD SVG 1.1//EN" "http://www.w3.org/Graphics/SVG/1.1/DTD/svg11.dtd">
<svg version="1.1" id="Mode_Isolation" xmlns="http://www.w3.org/2000/svg" xmlns:xlink="http://www.w3.org/1999/xlink" x="0px"
	 y="0px" width="100px" height="100px" viewBox="0 0 100 100" enable-background="new 0 0 100 100" xml:space="preserve">
<g>
	<path fill="#E0F2F1" d="M68.027,49.98c3.836,8.449,6.778,17.143,7.622,26.452c1.375,15.186-5.95,18.792-5.95,18.792
		c5.95-18.792,0.395-24.096,0.075-23.746c-3.304,3.607-6.242,7.317-9.81,10.263c2.722-2.247-11.099,9.946-22.51-0.698
		c-3.167-2.954-9.892-12.781-10.151-12.688c-0.008,0.003-0.016,0.006-0.024,0.009c-0.272,0.098-0.717,8.007,6.187,23.367
		c-3.584-1.511-11.51-10.861-11.231-33.362c1.442-9.623,5.368-17.865,11.933-24.694c0.467-0.486,1.25,0.113,0.893,0.685
		c-0.597,0.956-1.133,1.933-1.519,2.968c-2.292,6.15-4.396,12.393-6.113,18.723c-0.527,1.942,0.186,4.361,0.771,6.438
		c1.892,6.713,5.221,12.632,10.458,17.347c6.883,6.197,13.387,6.297,20.522,0.368c0.623-0.518,1.208-1.085,1.789-1.651
		c6.768-6.606,10.879-13.729,5.565-23.349c-2.011-3.641-3.58-7.525-4.986-11.579c-0.205-0.592,0.571-1.024,0.968-0.54
		c1.68,2.047,3.359,4.093,5.039,6.14C67.713,49.475,67.869,49.726,68.027,49.98z"/>
	<path fill="#E84E40" d="M64.738,42.476c-4.734-4.091-9.498-8.149-14.167-12.313c-0.66-0.589-1.254-1.253-1.801-1.962
		c-0.39-0.505,0.21-1.17,0.747-0.823c6.925,4.473,13.912,8.855,20.696,13.531c18.689,12.883,21.592,23.85,10.758,44.596
		c-0.304,0.582-0.139,0.641,0,0C85.8,63.173,77.988,53.925,64.738,42.476z"/>
	<path fill="#E0F2F1" d="M43.55,5.279c0.57,0.049,0.704,0.832,0.186,1.076c-2.855,1.346-5.645,2.547-8.2,4.128
		C25.154,16.905,19.01,26.691,15.641,38.027c-6.922,23.284,1.659,45.8,6.587,52.191C23.602,92,5.977,82.097,9.84,38.633
		C13.871,25.69,21.131,15.049,33.157,8.238C36.317,6.448,39.7,4.947,43.55,5.279z"/>
	<path fill="#E84E40" d="M19.795,71.683c0,0-8.193-23.958,5.113-40.971c2.644-3.381,11.243-8.348,11.446-8.122
		c0.041,0.045,0.082,0.091,0.123,0.136c0.185,0.205-3.194,6.154-5.821,7.615C15.692,40.382,19.799,71.736,19.795,71.683z"/>
	<path fill="#E0F2F1" d="M89.766,63.163C85.318,39.829,78.078,18.291,54.401,6.77c-0.54-0.263-0.353-1.082,0.247-1.069
		c5.778,0.122,10.328,2.559,14.475,5.648c10.646,7.93,16.368,19.109,19.18,31.731c1.449,6.506,1.782,13.261,2.58,19.912
		c0.034,0.286-0.152,0.551-0.434,0.613c-0.004,0.001-0.007,0.002-0.011,0.002C90.129,63.676,89.825,63.474,89.766,63.163z"/>
	<path fill="#E84E40" d="M55.737,70.513c0.145,0.154,0.194,0.385,0.122,0.584c-1.075,2.97-2.711,5.236-6.397,5.272
		c-3.664,0.036-5.512-2.001-6.454-5.21c-0.051-0.175-0.013-0.37,0.099-0.514C46.868,65.83,51.252,65.75,55.737,70.513z"/>
	<path fill="#E0F2F1" d="M43.863,21.462C43.6,16.89,44.681,12.617,47.18,8.714c0.619-0.967,2.127-0.302,1.837,0.809L45.86,21.649
		C45.571,22.759,43.929,22.607,43.863,21.462z"/>
</g>
</svg>
