<?xml version="1.0" encoding="utf-8"?>
<!-- Generator: Adobe Illustrator 17.0.0, SVG Export Plug-In . SVG Version: 6.00 Build 0)  -->
<!DOCTYPE svg PUBLIC "-//W3C//DTD SVG 1.1//EN" "http://www.w3.org/Graphics/SVG/1.1/DTD/svg11.dtd">
<svg version="1.1" id="Mode_Isolation" xmlns="http://www.w3.org/2000/svg" xmlns:xlink="http://www.w3.org/1999/xlink" x="0px"
	 y="0px" width="100px" height="100px" viewBox="0 0 100 100" enable-background="new 0 0 100 100" xml:space="preserve">
<g id="Your_Icon">
	<g>
		<path fill="#E84E40" d="M27.98,28.729c0.75,0.317,1.559,0.479,2.404,0.479c4.389,0,9.266-4.268,11.859-10.378
			c1.145-2.696,1.715-5.381,1.775-7.818v-0.816C43.92,6.16,42.34,2.923,39.454,1.697c-0.748-0.318-1.559-0.48-2.404-0.48
			c-4.389,0-9.264,4.268-11.857,10.378C21.977,19.174,23.201,26.7,27.98,28.729z"/>
		<path fill="#34495E" d="M78.521,63.133v-27.48c0-2.877-5.992-4.658-11.545-4.658s-11.546,1.78-11.546,4.657v27.48h-2.16V51.655
			h-6.887V40.177H44.02V20.785c-3.074,6.438-8.561,10.853-13.635,10.853c-1.174,0-2.301-0.226-3.354-0.672
			c-1.49-0.634-2.719-1.657-3.674-2.969v12.18h-2.361v11.479h-6.887V100h37.945v-0.031L90,99.999V63.133H78.521z M23.426,42.606
			h20.527v9.049H23.426V42.606z M25.588,97.602h-9.049V54.085h4.457h4.592L25.588,97.602z M43.953,97.602H28.016V54.085h18.367
			h4.457v9.048h-6.887L43.953,97.602z M57.727,72.316H46.383v-6.754h9.047v0.001h2.297V72.316z M57.859,35.727
			c0.414-0.717,3.883-2.303,9.117-2.303s8.701,1.586,9.115,2.303v27.406H57.859V35.727z M62.316,72.316h-2.16v-6.753h2.16V72.316z
			 M69.205,72.316h-4.459v-6.753h4.459V72.316z M87.57,72.316H71.635v-6.753h6.887v-0.001h9.049L87.57,72.316L87.57,72.316z"/>
	</g>
</g>
</svg>
