<?xml version="1.0" encoding="utf-8"?>
<!-- Generator: Adobe Illustrator 17.0.0, SVG Export Plug-In . SVG Version: 6.00 Build 0)  -->
<!DOCTYPE svg PUBLIC "-//W3C//DTD SVG 1.1//EN" "http://www.w3.org/Graphics/SVG/1.1/DTD/svg11.dtd">
<svg version="1.1" xmlns="http://www.w3.org/2000/svg" xmlns:xlink="http://www.w3.org/1999/xlink" x="0px" y="0px" width="100px"
	 height="100px" viewBox="0 0 100 100" enable-background="new 0 0 100 100" xml:space="preserve">
<g id="Layer_1">
	<path fill="#34495E" d="M93.823,68.265c1.513-1.247,2.183-3.339,1.528-5.312c-0.85-2.565-3.618-3.958-6.185-3.106
		c-0.095,0.029-0.188,0.065-0.279,0.104c-0.226-0.463-0.528-0.866-0.869-1.227C86.855,39.12,70.545,23.527,50.656,23.527
		c-19.425,0-35.438,14.873-37.257,33.83c-1.813,0.941-2.989,2.736-3.181,4.707c-0.479,0.019-0.964,0.104-1.442,0.263
		c-2.74,0.907-4.225,3.865-3.317,6.604c0.656,1.982,2.383,3.306,4.324,3.546c-0.105,0.698-0.056,1.43,0.181,2.144
		c0.806,2.433,3.43,3.75,5.861,2.944c0.814-0.27,1.499-0.745,2.026-1.348c1.175,2.278,3.865,3.428,6.376,2.597
		c1.453-0.481,2.555-1.532,3.148-2.819c1.287,0.803,2.908,1.047,4.459,0.532c2.77-0.915,4.271-3.906,3.354-6.676
		c-0.195-0.59-0.485-1.121-0.846-1.586c1.511-1.247,2.183-3.339,1.529-5.312c-0.848-2.557-3.601-3.945-6.159-3.112
		c0.589-11.059,9.744-19.881,20.946-19.881c10.702,0,19.542,8.05,20.826,18.41c-1.007,0.98-1.643,2.293-1.78,3.695
		c-0.479,0.019-0.963,0.104-1.442,0.263c-2.74,0.907-4.224,3.865-3.317,6.604c0.656,1.982,2.382,3.306,4.323,3.546
		c-0.104,0.698-0.056,1.43,0.181,2.144c0.806,2.433,3.432,3.75,5.861,2.944c0.815-0.27,1.501-0.745,2.027-1.348
		c1.175,2.278,3.865,3.428,6.375,2.597c1.452-0.481,2.556-1.532,3.149-2.819c1.286,0.803,2.906,1.047,4.46,0.532
		c2.769-0.915,4.271-3.906,3.352-6.676C94.475,69.261,94.186,68.729,93.823,68.265z M16.806,56.73
		c2.092-16.824,16.469-29.89,33.85-29.89c17.525,0,32,13.281,33.903,30.306c-0.34-0.012-0.683,0.021-1.027,0.08
		C81.669,40.732,67.639,27.87,50.656,27.87c-16.881,0-30.839,12.708-32.836,29.06C17.489,56.832,17.15,56.769,16.806,56.73z
		 M74.605,56.776c-1.99-11.419-11.969-20.13-23.95-20.13c-12.215,0-22.352,9.056-24.059,20.805c-0.334-0.12-0.681-0.202-1.037-0.25
		c1.823-12.215,12.381-21.615,25.096-21.615c12.535,0,22.966,9.135,25.008,21.094C75.313,56.678,74.959,56.714,74.605,56.776z
		 M79.174,57.852C77.618,43.49,65.425,32.273,50.656,32.273c-14.817,0-27.047,11.292-28.536,25.723
		c-0.453,0.305-0.852,0.67-1.177,1.091c0.972-15.549,13.924-27.904,29.713-27.904c15.766,0,28.705,12.319,29.709,27.837
		C80.021,58.571,79.62,58.18,79.174,57.852z"/>
</g>
<g id="Calque_2">
	<path fill="#E84E40" d="M17.82,56.93C18.437,45.938,29,28.25,50.656,27.87C67.312,28,81.693,40.061,83.532,57.226
		c0,0-2.376,0.368-3.167,1.794c-0.053-4.614-4.282-26.603-29.709-27.837c-15.989,0.4-28.406,11.9-29.713,27.904
		C20.25,57.563,17.82,56.93,17.82,56.93z"/>
</g>
</svg>
