<?xml version="1.0" encoding="utf-8"?>
<!-- Generator: Adobe Illustrator 17.0.0, SVG Export Plug-In . SVG Version: 6.00 Build 0)  -->
<!DOCTYPE svg PUBLIC "-//W3C//DTD SVG 1.1//EN" "http://www.w3.org/Graphics/SVG/1.1/DTD/svg11.dtd">
<svg version="1.1" id="Layer_1" xmlns="http://www.w3.org/2000/svg" xmlns:xlink="http://www.w3.org/1999/xlink" x="0px" y="0px"
	 width="100px" height="100px" viewBox="0 0 100 100" enable-background="new 0 0 100 100" xml:space="preserve">
<path fill="#E84E40" d="M27.387,52.487c0,2.577-1.393,3.555-3.11,3.555s-3.11-0.978-3.11-3.555s1.393-4.665,3.11-4.665
	S27.387,49.911,27.387,52.487z"/>
<path fill="#E84E40" d="M50.696,59.016c-0.182-0.336-0.602-0.463-0.939-0.279c-0.336,0.182-0.461,0.603-0.279,0.939
	c0.007,0.014,0.739,1.413,0.384,2.54c-0.153,0.487-0.492,0.855-1.034,1.127c-0.786,0.392-1.585,0.342-2.375-0.146
	c-1.047-0.647-1.715-1.869-1.715-2.426c0-0.382-0.31-0.693-0.693-0.693c-0.02,0-0.036,0.01-0.055,0.011
	c-0.019-0.002-0.036-0.011-0.055-0.011c-0.383,0-0.693,0.311-0.693,0.693c0,0.243-0.134,0.615-0.364,1.008l-2.19,1.751
	c-0.513,0.115-1.027,0.066-1.535-0.188c-0.541-0.271-0.879-0.638-1.033-1.123c-0.361-1.134,0.375-2.532,0.383-2.546
	c0.18-0.336,0.054-0.756-0.282-0.937c-0.335-0.182-0.754-0.056-0.937,0.279c-0.042,0.078-1.022,1.918-0.487,3.616
	c0.269,0.852,0.853,1.508,1.736,1.95c0.542,0.271,1.105,0.405,1.67,0.405c0.092,0,0.184-0.013,0.276-0.02
	c0.59,1.656,1.852,2.596,3.546,2.596c1.692,0,2.953-0.939,3.544-2.591c0.069,0.004,0.138,0.015,0.207,0.015
	c0.565,0,1.129-0.135,1.671-0.405c0.883-0.442,1.467-1.098,1.736-1.95C51.719,60.933,50.738,59.093,50.696,59.016z M44.026,66.177
	c-1.049,0-1.79-0.553-2.193-1.576c0.142-0.068,0.284-0.14,0.422-0.225c0.593-0.367,1.13-0.903,1.547-1.486
	c0.764,0.996,1.747,1.521,2.411,1.776C45.81,65.669,45.076,66.177,44.026,66.177z"/>
<g>
	<path fill="#E84E40" d="M56.569,53.918c-0.13,0-0.262-0.031-0.385-0.095c-0.407-0.213-0.564-0.715-0.351-1.122
		c0.063-0.121,1.576-2.958,4.344-3.427c1.732-0.293,3.507,0.396,5.272,2.052c0.335,0.314,0.352,0.84,0.038,1.175
		c-0.314,0.335-0.841,0.351-1.175,0.038c-1.367-1.282-2.666-1.827-3.858-1.625c-1.932,0.327-3.137,2.537-3.149,2.559
		C57.158,53.755,56.868,53.918,56.569,53.918z"/>
</g>
<path fill="#34495E" d="M92.495,55.632c-0.934-2.03-1.815-3.948-1.212-4.776c2.622-3.597,3.42-7.25,2.137-9.774
	c-0.74-1.456-2.122-2.325-3.694-2.325c-2.786,0-6.597,2.869-8.173,10.954c-0.511,2.624,0.602,5.032,1.678,7.36
	c0.673,1.456,1.327,2.883,1.624,4.375l0,0c-2.06-1.659-4.843-2.736-8.493-2.81c-0.142-0.029-0.283-0.062-0.426-0.089
	c2.311-3.736,3.629-7.871,3.629-12.157c0-5.241-0.736-9.841-2.196-13.802l0,0c2.762-5.408,5.046-13.278,4.096-23.939
	c-0.042-0.475-0.326-0.895-0.75-1.111c-0.256-0.131-12.928-6.349-26.355,7.689c0.002,0,0.004,0.001,0.007,0.001
	c-3.212-0.557-6.724-0.841-10.545-0.841c-4.005,0-7.564,0.338-10.738,0.943C19.619,1.153,6.883,7.407,6.627,7.539
	C6.202,7.755,5.918,8.175,5.877,8.65C4.891,19.715,7.389,27.768,10.29,33.187v-0.001C8.575,37.8,8.08,42.52,8.08,46.391
	c0,4.288,1.323,8.424,3.637,12.161c-1.377,0.266-2.726,0.628-4.015,1.107c-0.287,0.106-0.433,0.426-0.327,0.712
	c0.083,0.224,0.294,0.361,0.519,0.361c0.064,0,0.129-0.011,0.193-0.035c1.363-0.507,2.808-0.871,4.287-1.129
	c1.645,2.414,3.711,4.641,6.107,6.611c-1.817,0.844-3.582,1.853-5.106,3.056c-0.24,0.189-0.281,0.538-0.092,0.778
	c0.109,0.139,0.271,0.211,0.436,0.211c0.12,0,0.241-0.039,0.343-0.119c1.584-1.25,3.466-2.289,5.399-3.145
	c6.02,4.606,13.907,7.64,22.369,8.055l0,0c-0.115,1.607,0.116,3.227,0.73,4.755c1.105,2.753,3.242,4.944,6.207,6.499
	c-0.013-0.007-0.027-0.013-0.04-0.02c-0.712,1.101-1.604,2.858-1.413,4.541c0.117,1.021,0.623,1.895,1.463,2.527
	c0.872,0.656,1.955,0.977,3.09,0.977c0.167,0,0.336-0.032,0.505-0.046c0.047,0.038,0.082,0.083,0.131,0.12
	c0.92,0.692,2.062,1.031,3.256,1.031c1.538,0,3.164-0.563,4.513-1.66c1.294-1.052,2.372-2.722,2.492-4.802
	c0.271-0.007,0.533-0.006,0.81-0.017c0.977-0.041,2.469-0.151,2.274-0.136c-0.126,0.575-0.186,1.166-0.12,1.751
	c0.131,1.147,0.699,2.129,1.643,2.839c0.967,0.727,2.167,1.084,3.424,1.084c0.757,0,1.534-0.143,2.293-0.399
	c0.616,0.209,1.273,0.321,1.949,0.321c1.622-0.001,3.339-0.595,4.764-1.753c1.94-1.576,3.067-4.322,2.1-8.02l0,0
	c1.789-1.008,3.306-2.177,4.513-3.513c2.397-2.654,3.503-5.829,3.287-9.436c0.018,0.293,0.012,0.578,0.012,0.865
	C97.548,66.645,94.545,60.094,92.495,55.632z M75.649,28.831c-1.542-2.795-3.533-5.192-5.981-7.179
	c0.795-6.241,6.382-9.948,8.462-11.122C79.509,17.765,77.203,25.034,75.649,28.831z M73.258,8.8c1.703,0,3.127,0.248,4.185,0.519
	c-2.216,1.228-7.848,4.932-9.036,11.378c-3.003-2.14-6.605-3.742-10.813-4.793C63.55,10.223,69.151,8.8,73.258,8.8z M14.086,8.8
	c4.145,0,9.812,1.452,15.831,7.266c-4.46,1.208-8.028,3.012-10.889,5.185c-0.958-6.788-6.848-10.67-9.127-11.932
	C10.959,9.048,12.383,8.8,14.086,8.8z M9.214,10.53c2.151,1.214,8.042,5.139,8.518,11.769c-2.488,2.154-4.364,4.608-5.764,7.187
	C10.433,25.921,7.749,18.213,9.214,10.53z M22.472,65.775c4.812-1.685,9.165-2.313,9.234-2.323c0.303-0.042,0.515-0.322,0.472-0.625
	c-0.042-0.303-0.32-0.513-0.626-0.472c-0.304,0.042-5.071,0.73-10.187,2.627c-2.29-1.714-4.285-3.669-5.905-5.801
	c8.448-0.677,16.936,1.504,17.046,1.533c0.292,0.077,0.599-0.099,0.677-0.396c0.078-0.296-0.1-0.599-0.396-0.677
	c-0.471-0.124-9.324-2.402-18.092-1.52c-2.437-3.567-3.845-7.57-3.845-11.731c0-11.224,4.056-24.26,21.588-28.108
	c-0.764,2.552-2.52,9.045-1.402,11.427c1.381,2.944,5.929,4.124,8.531-12.405c0.283-0.019,0.571-0.034,0.859-0.049
	c-0.681,3.747-2.554,16.112,2.383,16.112c4.968,0,3.661-12.515,3.172-16.177c0.283,0.008,0.557,0.024,0.836,0.035
	c1.314,16.404,5.9,15.579,7.501,12.769c1.413-2.479-0.162-10.055-0.619-12.079c15.515,2.607,23.097,11.988,23.097,28.474
	c0,4.279-1.456,8.243-3.893,11.722c-8.74-0.858-17.54,1.406-18.009,1.529c-0.296,0.078-0.473,0.381-0.395,0.677
	c0.078,0.296,0.384,0.473,0.677,0.396c0.11-0.029,8.529-2.194,16.944-1.542c-1.662,2.129-3.694,4.06-5.987,5.742
	c-5.046-1.845-9.703-2.517-10.003-2.559c-0.306-0.041-0.583,0.169-0.625,0.472s0.169,0.583,0.472,0.625
	c0.069,0.01,4.3,0.62,9.031,2.252c-6.134,4.14-13.862,6.593-21.184,6.593C35.845,72.298,28.318,69.795,22.472,65.775z
	 M50.915,91.564c0.01,0.133,0.048,0.257,0.071,0.385c-0.322-0.086-0.623-0.213-0.876-0.403c-0.356-0.268-0.544-0.587-0.593-1.004
	c-0.124-1.078,0.654-2.487,1.255-3.359c-0.066-0.026,0.877,0.323,1.444,0.498C51.536,88.669,50.805,90.096,50.915,91.564z
	 M70.308,91.639c-0.477-0.063-0.917-0.213-1.269-0.478c-0.338-0.254-0.51-0.543-0.555-0.936c-0.061-0.524,0.1-1.14,0.352-1.739
	c-0.332,0.042,0.587-0.073,1.354-0.188l0,0c-0.197,0.7-0.3,1.435-0.218,2.161C70.021,90.88,70.146,91.268,70.308,91.639
	L70.308,91.639z M71.678,85.227c-2.496,0.487-5.245,0.802-8.219,0.926c-0.373,0.016-0.729,0.017-1.091,0.023l0,0
	c-0.109-0.323-0.232-0.649-0.389-0.984c-0.325-0.693-1.149-0.99-1.843-0.665c-0.693,0.325-0.99,1.15-0.665,1.843
	c1.366,2.908-0.207,4.62-0.946,5.221c-1.377,1.118-3.29,1.366-4.356,0.564c-0.405-0.304-0.475-0.585-0.491-0.794
	c-0.077-0.998,1.026-2.479,1.569-3.038c0.482-0.491,0.532-1.261,0.116-1.809c-4.563-6.008-0.425-9.87,0.07-10.297
	c0.581-0.493,0.655-1.364,0.164-1.948c-0.492-0.586-1.367-0.661-1.952-0.168c-0.057,0.048-4.712,4.079-2.622,10.202
	c-2.889-1.272-4.924-3.156-5.891-5.564c-0.479-1.194-0.651-2.446-0.544-3.686c8.932-0.168,17.298-3.269,23.608-8.104
	c1.859,0.821,3.667,1.813,5.214,2.998c-0.351,0.007-0.699,0.144-0.964,0.414c-0.065,0.067-6.252,6.553-0.725,14.803
	C71.707,85.182,71.692,85.206,71.678,85.227z M84.36,79.239c-0.909,1.006-2.051,1.913-3.404,2.715
	c-0.696-1.501-0.904-0.712-1.456-0.454c-0.692,0.325-1.75,0-0.407,3.283c1.326,3.241-0.229,5.04-1.038,5.696
	c-1.504,1.223-3.601,1.488-4.774,0.605c-0.338-0.254-0.51-0.543-0.555-0.936c-0.163-1.401,1.261-3.465,1.77-4.077
	c0.416-0.496,0.434-1.213,0.043-1.729c-5.099-6.713-0.317-11.833-0.109-12.049c0.531-0.547,0.52-1.421-0.025-1.955
	c-0.072-0.071-0.162-0.107-0.244-0.159c0.09-0.035,0.174-0.085,0.238-0.167c0.189-0.24,0.148-0.589-0.092-0.778
	c-1.535-1.211-3.312-2.225-5.142-3.072c1.726-1.422,3.292-2.969,4.641-4.632c0.747-0.082,1.476-0.138,2.166-0.138
	c9.595,0,10.818,7.985,10.965,10.433C87.107,74.663,86.24,77.157,84.36,79.239z M89.375,69.203
	c-0.325-1.569-0.882-3.106-1.707-4.502c0.565-3.373-0.755-6.267-1.922-8.792c-0.973-2.105-1.813-3.923-1.474-5.667
	c1.246-6.393,3.943-8.713,5.453-8.713c0.671,0,1.036,0.44,1.224,0.81c0.59,1.16,0.445,3.66-1.907,6.886
	c-1.56,2.14-0.349,4.775,0.933,7.565C91.846,60.855,93.761,65.035,89.375,69.203L89.375,69.203z"/>
</svg>
