<?xml version="1.0" encoding="utf-8"?>
<!-- Generator: Adobe Illustrator 17.0.0, SVG Export Plug-In . SVG Version: 6.00 Build 0)  -->
<!DOCTYPE svg PUBLIC "-//W3C//DTD SVG 1.1//EN" "http://www.w3.org/Graphics/SVG/1.1/DTD/svg11.dtd">
<svg version="1.1" id="Your_Icon" xmlns="http://www.w3.org/2000/svg" xmlns:xlink="http://www.w3.org/1999/xlink" x="0px" y="0px"
	 width="100px" height="100px" viewBox="0 0 100 100" enable-background="new 0 0 100 100" xml:space="preserve">
<path fill="#34495E" d="M76.245,26.244c-8.533,0-16.027,4.524-20.217,11.298c-4.386-1.269-8.598-0.926-12.088-0.05
	c-4.195-6.746-11.672-11.249-20.185-11.249C10.657,26.244,0,36.901,0,50s10.657,23.756,23.756,23.756
	c13.1,0,23.756-10.657,23.756-23.756c0-3.182-0.633-6.216-1.772-8.992c2.533-0.531,5.449-0.676,8.49,0.082
	c-1.119,2.754-1.74,5.76-1.74,8.91c0,13.099,10.656,23.756,23.756,23.756C89.343,73.756,100,63.099,100,50
	S89.343,26.244,76.245,26.244z M42.826,50c0,10.516-8.555,19.07-19.07,19.07S4.686,60.516,4.686,50
	c0-10.515,8.555-19.071,19.07-19.071c6.444,0,12.148,3.217,15.603,8.125c-0.859,0.372-1.616,0.742-2.241,1.075
	c-0.662-0.359-1.42-0.563-2.226-0.563c-2.577,0-4.667,2.09-4.667,4.668s2.09,4.667,4.667,4.667c2.578,0,4.667-2.089,4.667-4.667
	c0-0.33-0.035-0.652-0.1-0.963c0.521-0.27,1.121-0.558,1.795-0.844C42.264,44.75,42.826,47.31,42.826,50z M76.245,69.07
	c-10.516,0-19.071-8.555-19.071-19.07c0-2.538,0.503-4.959,1.406-7.176c0.362,0.203,0.725,0.421,1.086,0.656
	c-0.04,0.246-0.066,0.496-0.066,0.753c0,2.578,2.09,4.667,4.668,4.667c2.577,0,4.667-2.089,4.667-4.667s-2.09-4.668-4.667-4.668
	c-0.886,0-1.711,0.252-2.417,0.68c-0.479-0.313-0.958-0.6-1.438-0.866c3.428-5.092,9.245-8.45,15.832-8.45
	c10.515,0,19.069,8.556,19.069,19.071C95.314,60.516,86.76,69.07,76.245,69.07z"/>
<circle fill="#E84E40" cx="34.917" cy="44.25" r="4.708"/>
<circle fill="#E84E40" cx="64.292" cy="44.25" r="4.708"/>
</svg>
