<?xml version="1.0" encoding="utf-8"?>
<!-- Generator: Adobe Illustrator 17.0.0, SVG Export Plug-In . SVG Version: 6.00 Build 0)  -->
<!DOCTYPE svg PUBLIC "-//W3C//DTD SVG 1.1//EN" "http://www.w3.org/Graphics/SVG/1.1/DTD/svg11.dtd">
<svg version="1.1" xmlns="http://www.w3.org/2000/svg" xmlns:xlink="http://www.w3.org/1999/xlink" x="0px" y="0px"
	 width="67.352px" height="100px" viewBox="0 0 67.352 100" enable-background="new 0 0 67.352 100" xml:space="preserve">
<g id="Calque_1">
	<g id="Layer_2">
		<path fill="#34495E" d="M63.643,41.898c0,20.378-11.938,36.898-26.667,36.898c-11.155,0-20.549-10.553-25.476-24.318
			c-1.92-1.385-4.537-3.698-5.598-6.599c-1.764-4.825-3.951-9.801-1.306-10.768c2.286-0.836,5.266,1.388,7.172,5.121l2.665,2.923
			v7.069c0,0.104,0.085,0.189,0.189,0.189h4.751h4.022h7.598c0.104,0,0.189-0.084,0.189-0.189v-6.23
			c1.969-0.533,4.238-0.853,6.73-0.853c2.444,0,4.676,0.307,6.618,0.822v6.639c0,0.104,0.084,0.189,0.188,0.189h7.666h4.051h4.655
			c0.104,0,0.188-0.084,0.188-0.189v-16.68c0-0.104-0.084-0.188-0.188-0.188H44.721c-0.104,0-0.188,0.084-0.188,0.188v5.906
			c-2.047-0.457-4.274-0.707-6.618-0.707c-2.387,0-4.652,0.261-6.73,0.733v-6.309c0-0.104-0.085-0.189-0.189-0.189H14.623
			c-0.104,0-0.189,0.084-0.189,0.189v3.036l-7.312-7.572C6.64,24.613,7.248,18.508,12.076,12.03c0.648-0.871,1.433-1.631,2.32-2.3
			l11.153,14.1c0.223,0.282,0.55,0.461,0.907,0.496c0.356,0.037,0.713-0.076,0.986-0.309c1.807-1.537,5.773-2.216,10.635-2.13
			c0.432,3.155,3.28,5.593,6.737,5.593c1.9,0,3.617-0.738,4.852-1.925c-0.666,0.205-1.375,0.319-2.112,0.319
			c-2.775,0-5.159-1.573-6.216-3.824c7.506,0.596,16.313,2.75,22.593,6.181C64.145,32.324,63.643,36.821,63.643,41.898z
			 M53.936,11.313c-0.134-0.096-0.266-0.194-0.4-0.289c-1.038-0.235-2.141-0.436-3.29-0.6C51.474,10.68,52.705,10.975,53.936,11.313
			z M59.55,21.529c-0.091,0-0.181-0.016-0.271-0.05c-13.836-5.295-27.668-4.233-34.308-2.643l1.888,2.387
			c2.557-1.441,6.673-2.052,11.433-1.965c2.116-0.043,18.723,2.658,25.304,5.841c-0.364-2.111-1.037-4.117-2.204-6.047
			c-0.047,0.009-0.094,0.021-0.142,0.021c-0.097,0-0.194-0.019-0.289-0.058c-5.66-2.342-18.984-5.268-32.494-3.726
			c-0.413,0.047-0.789-0.25-0.836-0.665c-0.048-0.415,0.25-0.789,0.665-0.836c13.535-1.544,25.831,1.184,31.697,3.245
			c-0.949-1.216-2.049-2.378-3.26-3.467c-8.8-3.532-28.565-2.557-35.34,0.745l2.551,3.225c6.535-1.721,21.221-3.078,35.875,2.531
			c0.39,0.149,0.585,0.586,0.437,0.976C60.141,21.344,59.854,21.529,59.55,21.529z M18.642,10.833l1.795,2.27
			c5.487-2.84,19.522-4.152,29.809-2.678C36.803,7.623,23.816,9.512,18.642,10.833z M49.988,8.829C45.618,6.446,40.899,5,36.976,5
			c-5.633,0-14.334,0.251-20.319,3.324l0.964,1.217C22.375,8.212,35.885,6.029,49.988,8.829z M29.798,42.087h-5.101
			c-0.063,0-0.123-0.032-0.157-0.085c-0.035-0.053-0.041-0.12-0.017-0.178l0.966-2.253l-3.891-1.719
			c-0.081-0.036-0.127-0.124-0.108-0.211c0.019-0.088,0.096-0.15,0.185-0.15h6.989c0.062,0,0.118,0.029,0.154,0.079
			c0.035,0.049,0.045,0.112,0.025,0.17l-0.987,2.962l2.026,1.028c0.079,0.04,0.119,0.127,0.099,0.212
			C29.962,42.027,29.886,42.087,29.798,42.087z M60.021,42.087h-5.1c-0.063,0-0.123-0.032-0.157-0.085
			c-0.035-0.053-0.042-0.12-0.018-0.178l0.967-2.253l-3.892-1.719c-0.081-0.036-0.126-0.124-0.107-0.211
			c0.018-0.088,0.096-0.15,0.185-0.15h6.988c0.062,0,0.118,0.029,0.154,0.079c0.035,0.049,0.045,0.112,0.025,0.17l-0.987,2.962
			l2.027,1.028c0.078,0.04,0.118,0.127,0.098,0.212C60.186,42.027,60.109,42.087,60.021,42.087z M56.032,74.33
			c-0.067-0.008-0.139-0.013-0.214-0.013c-1.986,0-6.896,3.269-13.106,7.544c-0.28,0.192-0.552,0.379-0.819,0.563
			c-1.063-1.291-2.673-2.115-4.476-2.115c-1.693,0-3.212,0.73-4.271,1.89c-0.162-0.112-0.323-0.223-0.49-0.337
			c-6.211-4.275-11.121-7.544-13.106-7.544c-0.075,0-0.146,0.005-0.214,0.013c-2.267,0.288-3.58,12.265-3.292,16.823
			C16.147,92.805,16.452,95,17.884,95c0.099,0,0.2-0.013,0.301-0.037c2.54-0.609,10.875-4.25,14.332-5.783
			c1.025,1.629,2.834,2.714,4.9,2.714c2.144,0,4.012-1.169,5.014-2.9c3.146,1.399,12.103,5.335,14.751,5.97
			C57.283,94.987,57.384,95,57.483,95c1.431,0,1.736-2.195,1.841-3.847C59.612,86.595,58.298,74.618,56.032,74.33z M26.637,79.161
			c1.125,0.734,2.271,1.507,3.356,2.247l-0.501,1.969l-3.3-1.863L26.637,79.161z M22.72,76.754c0.881,0.492,1.865,1.093,2.889,1.744
			l-0.458,2.427l-2.838-1.603L22.72,76.754z M19.524,75.451c0.009-0.001,0.017-0.001,0.024-0.001c0.449,0,1.189,0.278,2.113,0.74
			l-0.403,2.536l-2.536-1.432C19.002,76.318,19.28,75.646,19.524,75.451z M18.43,78.431l2.64,1.491l-0.492,3.092l-2.729-1.62
			C18.026,80.313,18.225,79.303,18.43,78.431z M18.9,93.572c-0.387,0.127-0.718,0.226-0.979,0.289l-0.037,0.005
			c-0.04,0-0.221-0.12-0.398-0.711c-0.353-1.174-0.435-3.042-0.347-5.135l2.435,1.318L18.9,93.572z M17.209,86.77
			c0.097-1.377,0.256-2.805,0.452-4.168l2.726,1.616l-0.626,3.935L17.209,86.77z M20.116,93.143l0.513-3.23l2.563,1.388L23.1,91.788
			l0.314,0.06C22.216,92.338,21.08,92.787,20.116,93.143z M23.413,90.13l-2.595-1.405l0.617-3.885l2.676,1.588L23.413,90.13z
			 M21.627,83.636l0.495-3.12l2.806,1.585l-0.592,3.142L21.627,83.636z M27.809,89.999c-0.844,0.362-1.723,0.736-2.599,1.104
			l-0.751-0.405l0.689-3.655l2.965,1.759L27.809,89.999z M29.123,89.431l0.006-0.026l0.023,0.013
			C29.143,89.422,29.133,89.426,29.123,89.431z M28.404,87.656l-3.031-1.799l0.598-3.168l3.232,1.825L28.404,87.656z M30.433,88.859
			l-1.012-0.601l0.805-3.167l1.409,0.796c-0.003,0.071-0.011,0.142-0.011,0.214c0,0.728,0.14,1.421,0.386,2.063
			C31.557,88.364,31.025,88.6,30.433,88.859z M31.807,84.684l-1.291-0.729l0.474-1.863c0.353,0.241,0.695,0.478,1.023,0.704
			c0.154,0.105,0.304,0.208,0.453,0.311C32.172,83.59,31.948,84.12,31.807,84.684z M57.519,81.394l-2.729,1.62l-0.491-3.092
			l2.64-1.491C57.143,79.303,57.34,80.313,57.519,81.394z M55.818,75.45c0.008,0,0.016,0,0.023,0.001
			c0.244,0.194,0.522,0.867,0.803,1.844l-2.537,1.432l-0.402-2.536C54.629,75.729,55.369,75.45,55.818,75.45z M52.646,76.754
			l0.408,2.568l-2.838,1.603l-0.458-2.427C50.782,77.847,51.767,77.246,52.646,76.754z M49.994,85.857l-2.834,1.682l-0.811-3.13
			l3.046-1.72L49.994,85.857z M49.175,81.514l-3.12,1.761l-0.512-1.98c1.035-0.705,2.12-1.436,3.188-2.133L49.175,81.514z
			 M43.354,82.795c0.382-0.263,0.782-0.538,1.194-0.821l0.486,1.878l-1.94,1.096c-0.113-0.561-0.309-1.093-0.571-1.581
			C42.794,83.18,43.069,82.99,43.354,82.795z M42.899,87.961c0.189-0.559,0.298-1.155,0.307-1.776l2.122-1.198l0.816,3.154
			l-1.21,0.719C44.129,88.506,43.431,88.197,42.899,87.961z M46.441,89.283l0.066,0.262c-0.097-0.043-0.198-0.086-0.293-0.128
			L46.441,89.283z M50.157,91.103c-0.786-0.329-1.571-0.663-2.331-0.989l0,0l-0.371-1.432l2.764-1.64l0.688,3.655L50.157,91.103z
			 M50.438,82.101l2.806-1.585l0.496,3.12l-2.709,1.606L50.438,82.101z M53.932,84.84l0.617,3.885l-2.595,1.405l-0.699-3.702
			L53.932,84.84z M51.953,91.848l0.314-0.06L52.175,91.3l2.563-1.388l0.512,3.23C54.287,92.787,53.151,92.338,51.953,91.848z
			 M54.98,84.218l2.726-1.616c0.196,1.363,0.354,2.791,0.451,4.168l-2.552,1.383L54.98,84.218z M57.881,93.155
			c-0.177,0.591-0.358,0.711-0.397,0.711l-0.037-0.005c-0.262-0.063-0.593-0.162-0.979-0.289l-0.673-4.233l2.435-1.318
			C58.316,90.113,58.234,91.981,57.881,93.155z"/>
	</g>
</g>
<g id="Calque_2">
	<path opacity="0" fill="#E84E40" d="M29.798,42.087h-5.101c-0.063,0-0.123-0.032-0.157-0.085c-0.035-0.053-0.041-0.12-0.017-0.178
		l0.966-2.253l-3.891-1.719c-0.081-0.036-0.127-0.124-0.108-0.211c0.019-0.088,0.096-0.15,0.185-0.15h6.989
		c0.062,0,0.118,0.029,0.154,0.079c0.035,0.049,0.045,0.112,0.025,0.17l-0.987,2.962l2.026,1.028
		c0.079,0.04,0.119,0.127,0.099,0.212C29.962,42.027,29.886,42.087,29.798,42.087z"/>
	<path opacity="0" fill="#E84E40" d="M60.021,42.087h-5.1c-0.063,0-0.123-0.032-0.157-0.085c-0.035-0.053-0.042-0.12-0.018-0.178
		l0.967-2.253l-3.892-1.719c-0.081-0.036-0.126-0.124-0.107-0.211c0.018-0.088,0.096-0.15,0.185-0.15h6.988
		c0.062,0,0.118,0.029,0.154,0.079c0.035,0.049,0.045,0.112,0.025,0.17l-0.987,2.962l2.027,1.028
		c0.078,0.04,0.118,0.127,0.098,0.212C60.186,42.027,60.109,42.087,60.021,42.087z"/>
	<circle fill="#E84E40" cx="37.468" cy="86.104" r="5.812"/>
	<g>
		<path fill="#E84E40" d="M56.032,74.33c-0.067-0.008-0.139-0.013-0.214-0.013c-1.986,0-6.896,3.269-13.106,7.544
			c-0.28,0.192-0.552,0.379-0.819,0.563c-1.063-1.291-2.673-2.115-4.476-2.115c-1.693,0-3.212,0.73-4.271,1.89
			c-0.162-0.112-0.323-0.223-0.49-0.337c-6.211-4.275-11.121-7.544-13.106-7.544c-0.075,0-0.146,0.005-0.214,0.013
			c-2.267,0.288-3.58,12.265-3.292,16.823C16.147,92.805,16.452,95,17.884,95c0.099,0,0.2-0.013,0.301-0.037
			c2.54-0.609,10.875-4.25,14.332-5.783c1.025,1.629,2.834,2.714,4.9,2.714c2.144,0,4.012-1.169,5.014-2.9
			c3.146,1.399,12.103,5.335,14.751,5.97C57.283,94.987,57.384,95,57.483,95c1.431,0,1.736-2.195,1.841-3.847
			C59.612,86.595,58.298,74.618,56.032,74.33z"/>
		<path fill="#FFFFFF" d="M26.637,79.161c1.125,0.734,2.271,1.507,3.356,2.247l-0.501,1.969l-3.3-1.863L26.637,79.161z"/>
		<path fill="#FFFFFF" d="M22.72,76.754c0.881,0.492,1.865,1.093,2.889,1.744l-0.458,2.427l-2.838-1.603L22.72,76.754z"/>
		<path fill="#FFFFFF" d="M19.524,75.451c0.009-0.001,0.017-0.001,0.024-0.001c0.449,0,1.189,0.278,2.113,0.74l-0.403,2.536
			l-2.536-1.432C19.002,76.318,19.28,75.646,19.524,75.451z"/>
		<path fill="#FFFFFF" d="M18.43,78.431l2.64,1.491l-0.492,3.092l-2.729-1.62C18.026,80.313,18.225,79.303,18.43,78.431z"/>
		<path fill="#FFFFFF" d="M18.9,93.572c-0.387,0.127-0.718,0.226-0.979,0.289l-0.037,0.005c-0.04,0-0.221-0.12-0.398-0.711
			c-0.353-1.174-0.435-3.042-0.347-5.135l2.435,1.318L18.9,93.572z"/>
		<path fill="#FFFFFF" d="M17.209,86.77c0.097-1.377,0.256-2.805,0.452-4.168l2.726,1.616l-0.626,3.935L17.209,86.77z"/>
		<path fill="#FFFFFF" d="M20.116,93.143l0.513-3.23l2.563,1.388L23.1,91.788l0.314,0.06C22.216,92.338,21.08,92.787,20.116,93.143z
			"/>
		<polygon fill="#FFFFFF" points="23.413,90.13 20.818,88.725 21.435,84.84 24.111,86.428 		"/>
		<polygon fill="#FFFFFF" points="21.627,83.636 22.122,80.516 24.928,82.101 24.336,85.243 		"/>
		<path fill="#FFFFFF" d="M27.809,89.999c-0.844,0.362-1.723,0.736-2.599,1.104l-0.751-0.405l0.689-3.655l2.965,1.759L27.809,89.999
			z"/>
		<polygon fill="#FFFFFF" points="28.404,87.656 25.373,85.857 25.971,82.689 29.203,84.514 		"/>
		<path fill="#FFFFFF" d="M30.433,88.859l-1.012-0.601l0.805-3.167l1.409,0.796c-0.003,0.071-0.011,0.142-0.011,0.214
			c0,0.728,0.14,1.421,0.386,2.063C31.557,88.364,31.025,88.6,30.433,88.859z"/>
		<path fill="#FFFFFF" d="M31.807,84.684l-1.291-0.729l0.474-1.863c0.353,0.241,0.695,0.478,1.023,0.704
			c0.154,0.105,0.304,0.208,0.453,0.311C32.172,83.59,31.948,84.12,31.807,84.684z"/>
		<path fill="#FFFFFF" d="M57.519,81.394l-2.729,1.62l-0.491-3.092l2.64-1.491C57.143,79.303,57.34,80.313,57.519,81.394z"/>
		<path fill="#FFFFFF" d="M55.818,75.45c0.008,0,0.016,0,0.023,0.001c0.244,0.194,0.522,0.867,0.803,1.844l-2.537,1.432
			l-0.402-2.536C54.629,75.729,55.369,75.45,55.818,75.45z"/>
		<path fill="#FFFFFF" d="M52.646,76.754l0.408,2.568l-2.838,1.603l-0.458-2.427C50.782,77.847,51.767,77.246,52.646,76.754z"/>
		<polygon fill="#FFFFFF" points="49.994,85.857 47.16,87.539 46.349,84.409 49.395,82.689 		"/>
		<path fill="#FFFFFF" d="M49.175,81.514l-3.12,1.761l-0.512-1.98c1.035-0.705,2.12-1.436,3.188-2.133L49.175,81.514z"/>
		<path fill="#FFFFFF" d="M43.354,82.795c0.382-0.263,0.782-0.538,1.194-0.821l0.486,1.878l-1.94,1.096
			c-0.113-0.561-0.309-1.093-0.571-1.581C42.794,83.18,43.069,82.99,43.354,82.795z"/>
		<path fill="#FFFFFF" d="M42.899,87.961c0.189-0.559,0.298-1.155,0.307-1.776l2.122-1.198l0.816,3.154l-1.21,0.719
			C44.129,88.506,43.431,88.197,42.899,87.961z"/>
		<path fill="#FFFFFF" d="M50.157,91.103c-0.786-0.329-1.571-0.663-2.331-0.989l0,0l-0.371-1.432l2.764-1.64l0.688,3.655
			L50.157,91.103z"/>
		<polygon fill="#FFFFFF" points="50.438,82.101 53.244,80.516 53.74,83.636 51.031,85.242 		"/>
		<polygon fill="#FFFFFF" points="53.932,84.84 54.549,88.725 51.954,90.13 51.255,86.428 		"/>
		<path fill="#FFFFFF" d="M51.953,91.848l0.314-0.06L52.175,91.3l2.563-1.388l0.512,3.23C54.287,92.787,53.151,92.338,51.953,91.848
			z"/>
		<path fill="#FFFFFF" d="M54.98,84.218l2.726-1.616c0.196,1.363,0.354,2.791,0.451,4.168l-2.552,1.383L54.98,84.218z"/>
		<path fill="#FFFFFF" d="M57.881,93.155c-0.177,0.591-0.358,0.711-0.397,0.711l-0.037-0.005c-0.262-0.063-0.593-0.162-0.979-0.289
			l-0.673-4.233l2.435-1.318C58.316,90.113,58.234,91.981,57.881,93.155z"/>
	</g>
</g>
</svg>
