<?xml version="1.0" encoding="utf-8"?>
<!-- Generator: Adobe Illustrator 17.0.0, SVG Export Plug-In . SVG Version: 6.00 Build 0)  -->
<!DOCTYPE svg PUBLIC "-//W3C//DTD SVG 1.1//EN" "http://www.w3.org/Graphics/SVG/1.1/DTD/svg11.dtd">
<svg version="1.1" id="Layer_1" xmlns="http://www.w3.org/2000/svg" xmlns:xlink="http://www.w3.org/1999/xlink" x="0px" y="0px"
	 width="100px" height="100px" viewBox="0 0 100 100" enable-background="new 0 0 100 100" xml:space="preserve">
<path fill="#E0F2F1" d="M65.39,96.682c-0.846-2.378-1.565-4.39-2.262-6.338c-1.55,2.089-3.239,4.358-4.922,6.62
	c-0.251-0.109-0.493-0.227-0.743-0.337c0-1.65,0-3.31,0-5.188c-2.739,0.751-5.65,2.05-7.356-1.901
	c-1.847,3.356-4.421,3.114-7.379,1.854c0,1.854,0,3.529,0,5.203c-0.243,0.149-0.485,0.298-0.72,0.446
	c-1.729-2.223-3.451-4.444-5.118-6.589c-0.649,1.792-1.362,3.764-2.207,6.104c-2.097-4.859-3.623-9.265-1.769-14.288
	c-0.47,0.266-0.939,0.54-1.581,0.907c0-0.642,0-1.221,0-1.808c-3.294,3.757-7.583,4.969-12.778,5.329
	c1.361-1.753,2.622-3.364,3.811-4.883c-2.629-0.399-5.399-0.821-8.169-1.244c-0.016-0.32-0.023-0.634-0.039-0.955
	c1.447-0.751,2.895-1.502,4.374-2.269c-0.861-1.057-2.066-2.027-2.551-3.279c-0.438-1.134-0.094-2.582-0.094-4.146
	c-3.349-0.039-4.147-2.716-4.539-5.752c-1.526,0.994-2.879,1.87-4.233,2.747c-0.282-0.157-0.563-0.321-0.845-0.485
	c0.986-2.621,1.972-5.251,2.942-7.841c-1.776,0.313-3.826,0.681-6.401,1.143c3.232-4.147,5.893-7.974,10.963-8.013
	c-0.086-1.189-0.148-1.996-0.25-3.396c-4.499-0.282-7.512-3.756-10.618-8.021c2.402,0.415,4.468,0.767,6.354,1.088
	c-0.955-2.488-1.996-5.172-3.028-7.864c0.274-0.164,0.547-0.336,0.821-0.5c1.37,0.868,2.739,1.737,4.218,2.668
	c0.712-2.621,0.853-5.759,5.211-5.422c-1.987-3.49-0.344-5.642,2.199-7.512c-1.604-0.845-3.028-1.596-4.444-2.34
	c-0.016-0.313-0.031-0.618-0.039-0.931c2.621-0.493,5.243-0.978,7.903-1.471c-1.111-1.455-2.395-3.122-4.116-5.368
	c5.079,1.518,10.102,1.221,12.316,6.135c4.062-1.761,2.113-4.327,1.847-6.698c-0.141-1.252,0.47-2.606,0.822-3.889
	c0.399-1.463,0.892-2.895,1.573-5.078c0.947,2.512,1.69,4.468,2.387,6.314c1.612-2.136,3.271-4.319,4.93-6.51
	c0.243,0.109,0.493,0.211,0.744,0.321c0,1.651,0,3.294,0,5.243c2.668-0.782,5.461-2.042,7.332,1.957
	c1.846-3.709,4.554-3.075,7.363-1.941c0-1.815,0-3.443,0-5.07c0.235-0.165,0.47-0.329,0.696-0.485
	c1.729,2.175,3.451,4.351,5.118,6.448c0.673-1.769,1.455-3.787,2.355-6.143c0.962,2.762,2.159,4.922,2.363,7.168
	c0.211,2.277-0.571,4.648-0.986,7.387c0.853-0.493,1.33-0.767,1.925-1.119c0,0.642,0,1.213,0,2.269
	c2.034-1.674,3.646-3.552,5.681-4.515c1.965-0.931,4.375-0.923,7.262-1.448c-1.494,1.956-2.754,3.592-3.889,5.071
	c2.598,0.422,5.306,0.868,8.013,1.307c0.023,0.297,0.055,0.595,0.086,0.892c-1.416,0.79-2.84,1.573-4.39,2.434
	c1.862,1.894,4.257,3.811,2.026,7.316c3.717,0.141,4.883,2.496,5.04,5.783c1.658-1.064,3.004-1.925,4.351-2.794
	c0.273,0.165,0.556,0.329,0.829,0.485c-0.979,2.645-1.964,5.29-2.911,7.849c1.784-0.297,3.858-0.642,6.417-1.064
	c-3.365,3.928-5.83,7.997-11.064,7.896c0.125,1.213,0.211,2.066,0.359,3.514c4.461,0.172,7.449,3.639,10.345,7.841
	c-2.136-0.321-4.241-0.634-6.135-0.916c0.963,2.473,2.003,5.109,3.036,7.747c-0.273,0.203-0.548,0.406-0.821,0.61
	c-1.33-0.869-2.653-1.729-4.14-2.7c-0.939,2.465-0.884,5.979-5.438,5.313c2.152,3.537,0.485,5.688-2.089,7.59
	c1.604,0.893,3.06,1.698,4.515,2.505c-0.023,0.313-0.047,0.626-0.078,0.938c-2.699,0.407-5.407,0.813-8.099,1.221
	c1.197,1.479,2.527,3.13,4.319,5.345c-5.126-1.354-10.056-1.166-12.23-5.939c-1.182,0.735-1.901,1.182-2.833,1.769
	c0.282,1.948,1.057,4.343,0.854,6.651C67.588,91.838,66.375,93.936,65.39,96.682z M77.041,49.982
	c1.948-0.634,3.208-1.017,4.444-1.44c3.099-1.064,5.47-3.114,5.947-6.322c0.305-2.074-0.142-4.593-1.174-6.377
	c-0.478-0.806-3.2-0.305-5.235-0.423c0.094-1.041,0.235-2.637,0.353-3.904c-1.526-0.791-2.919-1.518-3.882-2.019
	c1.182-1.495,2.825-2.661,2.755-3.709c-0.094-1.417-1.236-3.099-2.434-4.022c-3.138-2.441-7.708-1.878-10.916,1.119
	c-0.994,0.923-1.706,2.144-2.543,3.224c-0.267-0.25-0.54-0.493-0.806-0.744c0.313-1.197,0.665-2.386,0.931-3.599
	c0.759-3.521,0.259-6.902-2.637-9.147c-1.55-1.205-3.937-1.91-5.877-1.776c-0.899,0.063-1.619,2.668-2.605,4.46
	c-0.924-0.681-2.207-1.628-3.31-2.441c-1.229,0.853-2.574,1.776-3.529,2.441c-0.782-1.831-1.025-3.834-1.972-4.257
	c-1.283-0.579-3.31-0.384-4.671,0.25c-3.631,1.683-5.267,6.057-4.312,10.509c0.266,1.26,0.649,2.504,0.978,3.748
	c-0.258,0.18-0.524,0.352-0.783,0.524c-0.923-1.119-1.729-2.379-2.793-3.349c-2.809-2.559-6.189-3.357-9.57-1.588
	c-1.565,0.821-3.083,2.621-3.576,4.28c-0.282,0.97,1.51,2.551,2.598,4.194c-1.057,0.509-2.497,1.205-3.717,1.792
	c0.094,1.628,0.18,3.193,0.25,4.421c-1.854-0.266-3.803-1.127-4.531-0.524c-1.181,0.986-2.058,2.895-2.191,4.484
	c-0.336,4.03,2.418,7.434,6.604,8.874c1.166,0.399,2.332,0.798,4.233,1.455c-1.98,0.54-3.099,0.798-4.187,1.158
	c-3.584,1.166-6.127,3.584-6.526,7.301c-0.204,1.925,0.657,4.28,1.808,5.893c0.485,0.681,2.958-0.063,4.867-0.173
	c-0.125,1.197-0.29,2.794-0.438,4.202c1.448,0.728,2.84,1.425,4.57,2.293c-4.397,2.285-4.546,5.133-0.955,7.543
	c3.357,2.254,7.708,1.808,10.963-1.244c0.994-0.931,1.745-2.12,2.605-3.2c0.243,0.227,0.485,0.446,0.728,0.673
	c-0.321,1.189-0.712,2.371-0.962,3.584c-0.775,3.764-0.188,7.301,3.067,9.578c1.518,1.064,3.857,1.604,5.673,1.338
	c0.923-0.133,1.495-2.59,2.41-4.335c0.845,0.618,2.144,1.564,3.326,2.434c1.173-0.838,2.497-1.769,3.466-2.457
	c0.767,1.776,1.041,3.873,1.964,4.226c1.433,0.532,3.537,0.32,4.953-0.392c3.537-1.776,5.048-6.025,4.101-10.313
	c-0.281-1.268-0.665-2.512-0.993-3.771c0.25-0.164,0.5-0.32,0.759-0.485c0.853,1.041,1.611,2.191,2.59,3.106
	c2.652,2.496,5.885,3.561,9.233,1.996c1.714-0.799,3.459-2.528,4.101-4.241c0.375-0.994-1.425-2.794-2.441-4.586
	c0.938-0.431,2.301-1.064,3.631-1.683c-0.094-1.51-0.196-3.153-0.274-4.452c1.761,0.321,3.607,1.221,4.28,0.665
	c1.213-0.993,2.293-2.801,2.418-4.351c0.313-3.779-1.611-6.675-4.953-8.412C81.298,51.203,79.521,50.828,77.041,49.982z"/>
<path fill="#E84E40" d="M39.285,53.855c-2.575,0.047-5.736-2.159-5.673-3.959c0.063-1.722,3.083-3.819,5.517-3.827
	c2.559-0.008,4.914,1.8,4.969,3.827C44.145,51.938,41.883,53.801,39.285,53.855z"/>
<path fill="#E84E40" d="M60.749,53.832c-2.637-0.055-4.859-1.878-4.797-3.936c0.063-2.019,2.434-3.85,4.945-3.834
	c2.426,0.016,5.407,2.105,5.485,3.834C66.461,51.728,63.37,53.887,60.749,53.832z"/>
<path fill="#E84E40" d="M48.644,41.586c-0.133,1.627-0.618,3.38-3.122,3.443c-2.661,0.07-5.086-2.567-5-5.728
	c0.047-1.62-0.235-3.834,2.371-4.006C45.78,35.115,48.581,38.057,48.644,41.586z"/>
<path fill="#E84E40" d="M40.467,61.994c0.031-4.327,2.292-7.066,4.906-7.074c2.457-0.008,3.177,1.651,3.255,3.701
	c0.11,3.067-2.754,6.339-5.548,5.846C41.859,64.247,40.92,62.455,40.467,61.994z"/>
<path fill="#E84E40" d="M59.497,62.002c-0.431,0.438-1.369,2.253-2.574,2.457c-2.763,0.469-5.431-2.599-5.462-5.65
	c-0.023-2.104,0.563-3.795,3.06-3.889C57.157,54.826,59.442,57.549,59.497,62.002z"/>
<path fill="#E84E40" d="M59.497,37.9c-0.023,4.484-2.16,7.113-4.852,7.129c-2.48,0.016-3.169-1.596-3.2-3.709
	c-0.039-3.138,2.684-6.331,5.54-5.885C58.167,35.624,59.09,37.478,59.497,37.9z"/>
<path fill="#E0F2F1" d="M61.774,36.727c2.315-2.441,2.183-3.31-0.415-4.57c-0.642-0.321-1.291-0.649-1.878-1.064
	c-2.527-1.761-3.302-1.471-4.272,1.815c-1.644-1.229-2.418-2.974-0.79-4.139c1.071-0.767,3.247-0.478,4.749-0.047
	c1.573,0.454,3.17,1.417,4.319,2.59c1.096,1.111,2.316,2.825,2.246,4.202C65.632,37.4,63.824,37.627,61.774,36.727z"/>
<path fill="#E0F2F1" d="M45.702,32.705c-2.019-3.185-2.559-3.341-5.321-1.432c-0.422,0.29-0.884,0.54-1.346,0.767
	c-2.942,1.44-3.122,2.223-1.346,5.399c-1.135-0.485-3.099-0.83-3.208-1.487c-0.219-1.291,0.172-3.239,1.08-4.053
	c1.768-1.588,3.959-2.888,6.197-3.701c1.15-0.415,3.075,0.086,4.069,0.892C46.39,29.543,45.78,31.453,45.702,32.705z"/>
<path fill="#E0F2F1" d="M66.759,45.272c1.009-0.744,2.073-2.144,2.997-2.05c0.993,0.094,2.527,1.495,2.652,2.473
	c0.36,2.809,0.392,5.735-0.008,8.537c-0.141,1.01-1.769,2.207-2.935,2.52c-0.642,0.18-1.729-1.307-2.395-2.301
	c3.475,0.063,3.866-0.375,3.553-3.795c-0.055-0.595,0.102-1.213,0.164-1.823c0.306-2.762-0.61-3.513-3.341-2.731
	C67.221,45.827,66.993,45.545,66.759,45.272z"/>
<path fill="#E0F2F1" d="M38.15,63.434c-2.183,2.073-2.082,3.075,0.438,4.351c0.642,0.329,1.299,0.634,1.886,1.049
	c2.543,1.769,3.357,1.486,5.055-1.683c0.165,1.236,0.892,3.13,0.383,3.568c-0.986,0.837-2.911,1.479-4.022,1.072
	c-2.339-0.861-4.593-2.23-6.495-3.851c-0.853-0.72-1.283-2.684-0.947-3.803c0.235-0.798,2.058-1.127,3.177-1.667
	C37.798,62.792,37.978,63.112,38.15,63.434z"/>
<path fill="#E0F2F1" d="M33.229,54.576c-0.908,0.806-1.964,2.323-2.614,2.167c-1.158-0.273-2.817-1.455-2.965-2.449
	c-0.407-2.777-0.376-5.681-0.039-8.482c0.125-1.001,1.549-2.426,2.543-2.574c0.908-0.141,2.035,1.189,3.153,1.925
	c-1.769,0.688-3.686,0.978-3.771,1.557c-0.344,2.175-0.266,4.468,0.078,6.652C29.691,53.848,31.522,54.044,33.229,54.576z"/>
<path fill="#E0F2F1" d="M62.228,63.081c1.386-0.798,3.193-0.657,3.42,1.229c0.164,1.347-0.939,3.17-2.011,4.257
	c-1.229,1.236-2.95,2.184-4.625,2.716c-1.4,0.446-3.255,0.54-4.499-0.055c-0.634-0.306-0.376-2.48-0.595-4.516
	c1.808,1.573,3.091,3.256,3.623,3.044c2.05-0.821,3.959-2.12,5.665-3.544C63.52,65.953,62.619,64.255,62.228,63.081z"/>
<path fill="#E84E40" d="M31.163,67.745c-0.83,3.873,2.309,4.163,7.238,2.59c0.618,1.597,1.041,3.334,1.933,4.781
	c1.033,1.667,2.52,2.7,4.202,0.047c0.227,0.274,0.454,0.556,0.673,0.838c-0.61,0.884-1.041,2.245-1.87,2.559
	c-2.309,0.892-3.858-1.15-5.524-6.91c-5.446,1.378-7.981,1.096-8.553-1.236c-0.227-0.907,0.54-2.065,0.861-3.114
	C30.466,67.448,30.818,67.597,31.163,67.745z"/>
<path fill="#E84E40" d="M24.824,58.691c-0.344-0.047-1.737,0.188-2.386-0.398c-1.839-1.651-0.595-4.633,3.317-8.225
	c-2.003-2.48-5.798-4.483-3.208-8.537c0.36-0.571,1.972-0.352,3.036-0.133c-3.248,2.504-3.021,3.826,1.448,8.521
	c-1.08,1.354-2.567,2.559-3.091,4.101C23.549,55.162,24.402,56.728,24.824,58.691z"/>
<path fill="#E84E40" d="M55.498,75.656c2.989,2.065,4.155,1.064,5.854-4.688c2.449-0.164,4.75-0.188,6.987-0.587
	c0.423-0.07,0.579-1.65,1.119-3.364c0.587,1.213,1.534,2.23,1.425,3.106c-0.337,2.582-3.217,3.005-8.663,1.439
	c-1.541,5.721-3.083,7.817-5.454,7.012c-0.837-0.282-1.33-1.597-1.972-2.441C55.029,75.978,55.264,75.82,55.498,75.656z"/>
<path fill="#E84E40" d="M68.973,32.235c0.337-3.287-0.993-4.405-7.441-2.676c-2.097-6.502-2.997-7.285-5.938-5.172
	c-0.251-0.141-0.493-0.282-0.744-0.422c0.579-0.876,0.979-2.222,1.784-2.543c2.449-0.979,4.21,1.314,5.532,6.972
	c2.981-0.555,6.315-2.786,8.568,1.08c0.399,0.681-0.43,2.082-0.688,3.153C69.686,32.494,69.333,32.368,68.973,32.235z"/>
<path fill="#E84E40" d="M44.45,24.489c-2.888-2.23-3.772-1.479-5.932,5.07c-1.706-0.282-3.49-0.978-5.094-0.681
	c-1.119,0.204-2.003,1.753-3.428,3.122c-0.148-0.399-0.986-1.463-0.813-2.339c0.454-2.426,3.412-2.825,8.615-1.299
	c1.182-2.809,0.673-7.113,5.392-6.988c0.728,0.023,1.408,1.549,2.112,2.387C45.021,24.003,44.731,24.246,44.45,24.489z"/>
<path fill="#E84E40" d="M74.458,49.959c3.897,4.257,4.914,6.776,3.107,8.365c-0.658,0.571-2.027,0.328-3.107,0.063
	c3.287-2.215,2.997-3.827-1.486-8.264c1.057-1.354,2.293-2.629,3.146-4.116c1.08-1.878,0.54-3.365-1.878-3.905
	c0.07-0.305,0.148-0.618,0.219-0.923c1.064,0.118,2.449-0.141,3.115,0.431C79.389,43.167,78.332,45.788,74.458,49.959z"/>
</svg>
