<?xml version="1.0" encoding="utf-8"?>
<!-- Generator: Adobe Illustrator 17.0.0, SVG Export Plug-In . SVG Version: 6.00 Build 0)  -->
<!DOCTYPE svg PUBLIC "-//W3C//DTD SVG 1.1//EN" "http://www.w3.org/Graphics/SVG/1.1/DTD/svg11.dtd">
<svg version="1.1" xmlns="http://www.w3.org/2000/svg" xmlns:xlink="http://www.w3.org/1999/xlink" x="0px" y="0px" width="100px"
	 height="100px" viewBox="0 0 100 100" enable-background="new 0 0 100 100" xml:space="preserve">
<g id="Calque_2">
	<path fill="#E84E40" d="M58.32,13.46c0.055-0.177,0.033-0.377-0.08-0.541l-0.52-0.755l0.288-0.871
		c0.082-0.247,0.002-0.518-0.2-0.682l-0.713-0.578l0.029-0.917c0.008-0.259-0.145-0.497-0.384-0.597l-0.847-0.353l-0.229-0.888
		c-0.065-0.251-0.278-0.436-0.536-0.465l-0.912-0.101l-0.47-0.788c-0.133-0.223-0.39-0.341-0.646-0.295l-0.904,0.16l-0.674-0.623
		c-0.191-0.176-0.47-0.216-0.703-0.1l-0.821,0.409L49.18,5.066c-0.232-0.116-0.512-0.076-0.703,0.1l-0.674,0.623l-0.904-0.16
		c-0.256-0.045-0.513,0.072-0.646,0.295l-0.47,0.788l-0.912,0.101c-0.258,0.029-0.471,0.214-0.536,0.465l-0.229,0.888L43.26,8.519
		c-0.24,0.1-0.393,0.337-0.384,0.597l0.029,0.917l-0.713,0.578c-0.202,0.164-0.281,0.435-0.2,0.682l0.288,0.871l-0.52,0.756
		c-0.114,0.165-0.137,0.366-0.08,0.544L50,12.922L58.32,13.46z"/>
</g>
<g id="Your_Icon">
	<g>
		<path fill="#34495E" d="M50.004,50.474L27.772,51.56c-0.074-0.749-0.113-1.507-0.113-2.272l37.612,0.045
			c4.379-0.353,5.547-4.259,6.005-5.822h0.571c0.239,0.833,0.498,2.618,0.498,5.772c0,0.765-0.039,1.525-0.113,2.274L50.004,50.474z
			 M41.68,13.464c-1.643,0.601-3.219,1.378-4.678,2.315c-2.764,1.775-5.159,4.149-6.926,6.864c-1.801,2.769-3.004,5.944-3.433,9.186
			c-1.59,0.252-2.835,1.632-2.835,3.292v5.066c0,1.228,0.693,2.302,1.683,2.88c-0.076,1.52-0.101,3.13-0.101,4.916
			c0,1.345-0.077,2.787-0.21,4.301c-0.264-0.078-0.525-0.118-0.788-0.118c-0.216,0-0.429,0.027-0.636,0.081
			c-2.262,0.588-3.214,4.181-2.168,8.204c0.468,1.801,1.256,3.349,2.191,4.447c-0.781,8.446-0.613,17.028,4.591,22.904
			c2.043,2.307,4.793,4.079,8.173,5.266C40.193,94.35,44.721,95,50.001,95s9.807-0.65,13.457-1.932
			c3.38-1.187,6.13-2.959,8.173-5.266c5.204-5.877,5.372-14.458,4.591-22.904c0.935-1.098,1.723-2.647,2.191-4.447
			c1.045-4.024,0.093-7.617-2.169-8.205c-0.207-0.054-0.421-0.081-0.638-0.081c-0.263,0-0.528,0.041-0.791,0.118
			c-0.133-1.514-0.216-2.956-0.216-4.301c0-1.787-0.055-3.397-0.132-4.916c0.99-0.579,1.64-1.653,1.64-2.88V35.12
			c0-1.66-1.201-3.04-2.791-3.292c-0.295-2.23-0.919-4.398-1.875-6.443c-1.367-2.926-3.407-5.598-5.91-7.728
			c-2.115-1.8-4.582-3.232-7.211-4.197c0,0-3.424-1.356-8.57-1.314C44.604,12.188,41.68,13.464,41.68,13.464z M67.55,53.864
			l-0.438,4.963H56.835l-2.257-4.934l3.61-0.01c0.123,1.25,1.18,2.23,2.462,2.23c1.286,0,2.346-0.987,2.463-2.242L67.55,53.864z
			 M45.43,53.893l-2.257,4.933H32.895l-0.438-4.963l4.437,0.009c0.118,1.256,1.177,2.241,2.463,2.241
			c1.282,0,2.34-0.981,2.463-2.231L45.43,53.893z M31.123,23.3c1.671-2.568,3.937-4.802,6.554-6.482
			c2.672-1.716,5.757-2.852,8.922-3.32c0.742-0.11,1.49-0.199,2.24-0.199h2.307c1.804,0.104,3.594,0.372,5.311,0.873
			c3.026,0.883,5.885,2.416,8.269,4.444c2.367,2.014,4.3,4.513,5.592,7.277c0.872,1.867,1.459,3.866,1.748,5.846H27.937
			C28.363,28.822,29.461,25.855,31.123,23.3z M25.058,35.121c0-1.149,0.985-2.132,2.134-2.132H72.81
			c1.149,0,2.048,0.983,2.048,2.132v5.066c0,1.089-0.805,1.985-1.871,2.075H27.015c-1.066-0.09-1.958-0.985-1.958-2.075v-5.066
			H25.058z M22.798,60.156c-0.431-1.659-0.502-3.296-0.199-4.609c0.266-1.154,0.803-1.916,1.472-2.09
			c0.104-0.027,0.213-0.041,0.323-0.041c0.211,0,0.436,0.051,0.67,0.15c-0.159,1.565-0.358,3.197-0.561,4.869
			c-0.184,1.511-0.372,3.051-0.538,4.603C23.5,62.248,23.09,61.279,22.798,60.156z M56.938,71.551c0,1.49-1.245,2.695-2.735,2.695
			h-1.234l0,0c-1.871,0-2.968-1.884-2.968-1.884s-1.097,1.884-2.968,1.884l0,0h-1.234c-1.49,0-2.717-1.205-2.717-2.695v-0.139
			c0-1.49,1.228-2.688,2.717-2.688h8.404c1.49,0,2.735,1.198,2.735,2.688V71.551z M57.622,65.301
			c-0.397,0.042-14.846,0.042-15.243,0c-0.344-0.036-4.007,6.414-9.132-0.048c-1.297-1.794-2.446-3.747-3.361-5.823
			c-0.062-0.352-0.139-0.706-0.231-1.061c-0.29-1.116-0.703-2.137-1.198-3.014c-0.123-0.471-0.233-0.946-0.329-1.425h2.57
			l0.475,6.251H44.36l3.089-6.295l2.554-1.157l2.554,1.156l3.089,6.295h13.188l0.475-6.251h2.563
			c-0.097,0.482-0.207,0.959-0.331,1.432c-0.494,0.877-0.907,1.897-1.196,3.011c-0.091,0.352-0.168,0.703-0.23,1.053
			c-0.915,2.078-2.065,4.032-3.363,5.828C61.629,71.714,57.966,65.265,57.622,65.301z M77.203,60.156
			c-0.292,1.123-0.702,2.092-1.167,2.882c-0.166-1.552-0.353-3.093-0.538-4.603c-0.204-1.672-0.403-3.304-0.561-4.869
			c0.233-0.098,0.458-0.15,0.669-0.15c0.11,0,0.219,0.014,0.323,0.041c0.669,0.174,1.206,0.936,1.472,2.09
			C77.705,56.859,77.634,58.496,77.203,60.156z"/>
		<path fill="#E84E40" d="M54.394,70.079h-8.786c-0.288,0-0.521,0.233-0.521,0.521s0.233,0.521,0.521,0.521h8.786
			c0.288,0,0.521-0.233,0.521-0.521C54.915,70.312,54.681,70.079,54.394,70.079z"/>
	</g>
</g>
<g id="Calque_3">
	<polygon fill="#E84E40" points="30.698,53.93 31.173,60.181 44.36,60.181 47.449,53.886 45.43,53.893 43.173,58.826 32.895,58.826 
		32.457,53.863 	"/>
	<polygon fill="#E84E40" points="52.557,53.885 55.646,60.18 68.834,60.18 69.309,53.929 67.55,53.864 67.112,58.827 56.835,58.827 
		54.578,53.893 	"/>
</g>
</svg>
