<?xml version="1.0" encoding="utf-8"?>
<!-- Generator: Adobe Illustrator 17.0.0, SVG Export Plug-In . SVG Version: 6.00 Build 0)  -->
<!DOCTYPE svg PUBLIC "-//W3C//DTD SVG 1.1//EN" "http://www.w3.org/Graphics/SVG/1.1/DTD/svg11.dtd">
<svg version="1.1" id="Layer_1" xmlns="http://www.w3.org/2000/svg" xmlns:xlink="http://www.w3.org/1999/xlink" x="0px" y="0px"
	 width="100px" height="100px" viewBox="0 0 100 100" enable-background="new 0 0 100 100" xml:space="preserve">
<path fill="#34495E" d="M87.3,36.6c-0.3,2.3-0.7,4.6-1.2,6.8c-4.5,20-16.8,37.2-33.6,48.2c-0.3,0.2-0.6,0.4-0.8,0.5
	c-0.7,0.4-1.6,0.6-2.5,0.6s-1.7-0.2-2.5-0.6c-0.3-0.2-0.6-0.4-0.8-0.5c-10.8-7.1-19.8-16.7-26-28c-1.2-2.1-2.2-4.3-3.2-6.5
	c-4-9.3-6.3-19.6-6.3-30.4c0-1.9,0.1-3.8,0.2-5.6l0,0c0.1-1.8,1.2-3.4,2.7-4.3c0.2-0.1,0.3-0.2,0.5-0.3c10.6-5.3,22.6-8.2,35.3-8.2
	s24.7,2.9,35.3,8.2c0.2,0.1,0.4,0.2,0.6,0.3c1.4,0.8,2.4,2.3,2.6,4c0,0.1,0,0.2,0,0.3l0,0c0.1,1.8,0.2,3.7,0.2,5.6
	C88,30,87.7,33.3,87.3,36.6z M81.1,20.5c-0.8-0.4-1.6-0.7-2.5-1.1c-3.3-1.4-6.7-2.5-10.1-3.4c-6.3-1.6-12.8-2.5-19.3-2.5
	c-6.6,0-13.1,0.8-19.3,2.5c-3.5,0.9-6.8,2-10.1,3.4c-0.8,0.3-1.5,0.6-2.3,1l0,0c-0.1,0-0.3,0.1-0.4,0.2c-0.6,0.4-1.1,1-1.2,1.7
	c0,0.1,0,0.3,0,0.4s0,0.2,0,0.2c0,0.8,0,1.5,0,2.3c0,0.1,0,0.2,0,0.3c0,9.9,2,19.7,5.8,28.8c1,2.4,2.1,4.7,3.3,7
	c0.4,0.7,0.8,1.4,1.1,2C31.2,71.9,38,79.5,46,85.5c0.6,0.4,1.1,0.8,1.7,1.3c0,0,0.1,0.1,0.2,0.1c0.4,0.3,0.9,0.4,1.4,0.4
	s1-0.2,1.4-0.4l0.2-0.1c0.6-0.4,1.2-0.8,1.7-1.3c8-6,14.8-13.6,19.9-22.2c3.6-6.1,6.3-12.7,8-19.5c0.6-2.5,1.1-5,1.5-7.5
	c0.5-3.6,0.8-7.2,0.8-10.9c0-0.1,0-0.2,0-0.3c0-0.9,0-1.8-0.1-2.6l-0.1-0.6C82.4,21.2,81.9,20.9,81.1,20.5z M76.8,34.4
	c0,0.1,0,0.1,0,0.2c-0.2,1.4-1.3,2.6-2.8,2.9c-0.2,0-0.4,0-0.6,0.1l0,0c-3.1,0.4-6.2,1-9.5,1.7c-2.3-5.7-7.7-9.7-14.2-9.7
	c-8.4,0-15.3,6.9-15.3,15.5c0,1.2,0.1,2.3,0.4,3.4c-1.6,0.6-3.2,1.3-4.7,2c-0.4,0.2-0.9,0.4-1.3,0.6c-0.2,0.1-0.4,0.2-0.6,0.3
	s-0.4,0.1-0.7,0.1c-0.9,0-1.7-0.5-2.1-1.3c-0.1-0.2-0.1-0.4-0.2-0.6c-2.6-7.1-4-14.6-4.1-22.3l0,0c0-0.1,0-0.2,0-0.3
	c0-0.4,0.1-0.7,0.2-1.1c0.2-0.6,0.5-1,1-1.4c0.3-0.3,0.6-0.5,1-0.6c2.8-1.1,5.6-2,8.5-2.8c5.6-1.5,11.5-2.2,17.4-2.2
	s11.7,0.7,17.4,2.2c2.9,0.7,5.7,1.7,8.5,2.8c0.4,0.1,0.7,0.4,1,0.6c0.5,0.4,0.8,0.9,1,1.5c0.1,0.3,0.2,0.7,0.2,1c0,0.1,0,0.2,0,0.3
	l0,0C77.2,29.7,77,32,76.8,34.4L76.8,34.4z M32.6,57.3c0.2-0.1,0.4-0.2,0.5-0.2s0.2-0.1,0.3-0.1l0,0c1.5-0.7,3.1-1.3,4.6-2
	c2.8,3.4,7,5.6,11.7,5.6c8,0,14.6-6.3,15.2-14.2c2-0.5,3.9-0.9,5.8-1.2c0.2,0,0.3-0.1,0.4-0.1s0.1,0,0.2,0c1.3,0,2.4,1.1,2.4,2.4
	c0,0.2,0,0.3-0.1,0.5l0,0c-0.1,0.2-0.1,0.3-0.2,0.5c-1.4,4.2-3.3,8.3-5.6,12.1C63.4,68,57.5,74.7,50.6,80c-0.1,0.1-0.2,0.1-0.3,0.2
	s-0.3,0.2-0.5,0.2c-0.3,0.1-0.6,0.2-0.9,0.2c-0.3,0-0.6-0.1-0.9-0.2c-0.2-0.1-0.3-0.1-0.5-0.2c-0.1-0.1-0.2-0.1-0.3-0.2
	C40.8,75.1,35.3,69.1,31,62.3l0,0c-0.3-0.5-0.5-1.2-0.5-1.8C30.9,59,31.6,57.9,32.6,57.3z"/>
<path fill="#E84E40" d="M49.8,58c-7.2,0-13.1-5.8-13.1-13.1s5.8-13.1,13.1-13.1s13.1,5.8,13.1,13.1S57,58,49.8,58z M38.2,43.3
	c0.7-0.4,1.5-0.4,2.2,0.1s1.5,0.9,2.2,1.4c0.8,0.4,1.1,1.1,1.1,2s0,1.7,0,2.6c0,0.9-0.4,1.5-1.1,1.9c-0.6,0.3-1.2,0.6-1.8,1
	c0.6,0.7,1.2,1.3,2,1.8c0.3-0.3,0.6-0.6,1.1-0.7c0.8-0.2,1.7-0.5,2.5-0.8s1.6-0.1,2.2,0.5c0.6,0.6,1.3,1.2,1.9,1.8
	c0.4,0.4,0.7,0.8,0.7,1.3c1.1-0.2,2.2-0.5,3.2-1c-0.1-0.2-0.3-0.4-0.4-0.7c-0.5-0.7-0.5-1.5-0.1-2.2c0.4-0.8,0.8-1.5,1.2-2.3
	s1-1.2,1.9-1.2s1.7,0,2.6-0.1c0.2,0,0.3,0,0.5,0c0.3-0.9,0.5-1.9,0.6-2.9c-0.1-0.1-0.3-0.3-0.4-0.5C60,44.5,59.5,43.7,59,43
	s-0.5-1.5-0.1-2.2c0.2-0.4,0.4-0.8,0.6-1.1c-0.5-1-1.2-1.9-1.9-2.7c-0.4,0.4-0.9,0.6-1.6,0.5c-0.9-0.1-1.7-0.1-2.6-0.1
	c-0.9,0-1.5-0.4-1.9-1.2s-0.8-1.6-1.2-2.3c-0.1-0.1-0.1-0.2-0.2-0.3c-0.2,0-0.5,0-0.7,0c-0.8,0-1.7,0.1-2.5,0.3c0,0.2,0.1,0.5,0,0.8
	c-0.1,0.9-0.2,1.7-0.3,2.6c-0.1,0.9-0.5,1.5-1.3,1.8c-0.8,0.4-1.6,0.7-2.4,1.1c-0.8,0.4-1.5,0.3-2.2-0.2c-0.4-0.3-0.8-0.6-1.1-0.8
	C39,40.3,38.5,41.7,38.2,43.3z M47,41.5c0.3-0.8,0.8-1.3,1.7-1.5c0.9-0.1,1.7-0.3,2.6-0.5c0.9-0.2,1.6,0.1,2.1,0.7
	c0.6,0.7,1.1,1.3,1.7,2c0.6,0.7,0.7,1.4,0.4,2.2s-0.6,1.6-0.9,2.5c-0.3,0.8-0.8,1.3-1.7,1.5c-0.9,0.1-1.7,0.3-2.6,0.5
	c-0.9,0.2-1.6-0.1-2.1-0.7c-0.6-0.7-1.1-1.3-1.7-2c-0.6-0.7-0.7-1.4-0.4-2.2C46.4,43.2,46.7,42.3,47,41.5z"/>
</svg>
