<?xml version="1.0" encoding="utf-8"?>
<!-- Generator: Adobe Illustrator 17.0.0, SVG Export Plug-In . SVG Version: 6.00 Build 0)  -->
<!DOCTYPE svg PUBLIC "-//W3C//DTD SVG 1.1//EN" "http://www.w3.org/Graphics/SVG/1.1/DTD/svg11.dtd">
<svg version="1.1" id="Calque_1" xmlns="http://www.w3.org/2000/svg" xmlns:xlink="http://www.w3.org/1999/xlink" x="0px" y="0px"
	 width="500px" height="500px" viewBox="0 0 500 500" enable-background="new 0 0 500 500" xml:space="preserve">
<g>
	<path fill="#E74B3B" d="M152.292,275.264c1.917,1.436,3.119,2.943,3.6,4.503c0.481,1.565,0.481,3.06,0,4.503
		c-0.481,1.436-1.501,2.58-3.06,3.418c-1.565,0.844-3.424,1.26-5.581,1.26c-6.484,0.246-13.209,0.844-20.174,1.806
		c-6.965,0.962-13.508,1.137-19.629,0.539c-6.127-0.598-11.708-2.521-16.75-5.763c-5.048-3.242-8.888-8.829-11.526-16.75
		c-1.929-6.244-2.404-13.625-1.442-22.155c0.956-8.519,2.937-17.471,5.945-26.834c2.996-9.369,6.719-18.849,11.163-28.458
		c4.444-9.603,9.122-18.732,14.047-27.373c4.919-8.648,9.844-16.574,14.768-23.774c4.919-7.205,9.304-13.086,13.15-17.653
		c2.163-2.398,4.737-4.983,7.745-7.745c3.002-2.756,6.244-5.042,9.726-6.842c3.477-1.8,7.024-2.937,10.623-3.424
		c3.606-0.481,7.205,0.123,10.805,1.8c4.802,2.163,8.829,5.288,12.071,9.369c3.242,4.086,5.939,8.642,8.102,13.684
		c2.163,5.048,3.899,10.213,5.224,15.489c1.319,5.288,2.339,10.09,3.06,14.411c1.923,12.728,2.884,26.418,2.884,41.063
		c0,14.651-0.422,29.484-1.26,44.487c-0.844,15.009-1.747,29.894-2.703,44.669c-0.961,14.768-1.208,28.517-0.721,41.239v5.763
		c1.196-2.879,2.521-5.699,3.963-8.46c1.442-2.761,2.879-5.587,4.321-8.466c4.08-7.44,8.343-15.97,12.787-25.573
		s8.947-19.277,13.508-28.997c4.561-9.726,9.187-19.148,13.871-28.276c4.678-9.128,9.304-17.166,13.865-24.137
		c1.442-2.163,3.119-4.438,5.042-6.842c1.923-2.398,4.081-4.62,6.484-6.666c2.398-2.034,4.983-3.658,7.745-4.86
		c2.761-1.202,5.581-1.559,8.466-1.085c4.802,0.487,8.343,2.585,10.623,6.308c2.281,3.723,3.424,7.739,3.424,12.066
		c0,0.481-0.059,1.565-0.182,3.242c-0.123,1.683-0.176,2.879-0.176,3.6c0,0.721-0.064,1.683-0.182,2.884
		c-0.123,1.202-0.305,2.04-0.539,2.521c0,2.879-0.064,7.803-0.182,14.768c-0.123,6.965-0.305,14.17-0.539,21.61
		c-0.24,8.648-0.487,18.01-0.721,28.094c0,3.371-0.059,7.328-0.182,11.89c-0.123,4.567-0.123,9.427,0,14.587
		c0.123,5.171,0.416,10.389,0.903,15.671c0.481,5.282,1.196,10.33,2.163,15.126c4.08-12.247,8.941-24.366,14.587-36.379
		c5.64-12.007,10.864-23.891,15.671-35.663c4.796-11.526,9.779-23.949,14.944-37.281c5.165-13.326,10.506-26.711,16.029-40.16
		c5.523-13.449,11.104-26.658,16.75-39.627c5.64-12.963,11.35-25.087,17.113-36.379c1.196-2.163,2.756-3.477,4.678-3.963
		c1.923-0.475,3.606-0.358,5.048,0.363c1.436,0.715,2.574,1.982,3.418,3.781c0.838,1.8,0.78,3.905-0.176,6.302
		c-5.529,11.526-10.934,23.897-16.211,37.1c-5.288,13.209-10.447,26.658-15.489,40.348c-5.042,13.684-9.967,27.315-14.768,40.881
		c-4.807,13.572-9.369,26.359-13.69,38.36c-5.763,16.093-11.591,32.421-17.471,48.989c-5.886,16.568-12.189,32.779-18.907,48.632
		c-5.042,5.763-10.688,6.959-16.932,3.6c-0.961-0.721-2.462-1.923-4.503-3.6c-2.04-1.683-3.664-3.125-4.86-4.327
		c-4.086-5.517-6.971-14.1-8.648-25.755c-1.683-11.643-2.703-24.313-3.06-38.003c-0.363-13.684-0.422-27.491-0.182-41.421
		c0.234-13.924,0.358-25.937,0.358-36.021c-7.446,13.209-13.989,26.06-19.629,38.542c-5.646,12.488-10.87,24.735-15.671,36.742
		c-4.802,12.007-9.603,23.774-14.405,35.3c-4.807,11.526-10.213,22.818-16.211,33.858c-4.086,7.926-7.563,12.787-10.447,14.592
		c-2.879,1.8-7.328,1.378-13.326-1.26c-4.086-2.65-7.147-6.613-9.187-11.89c-2.04-5.282-3.547-10.987-4.503-17.108
		c-0.962-6.127-1.501-12.071-1.618-17.835c-0.123-5.763-0.182-10.565-0.182-14.405c0-8.161,0.481-17.653,1.442-28.458
		c0.956-10.805,1.982-22.155,3.06-34.039c1.079-11.89,2.099-24.073,3.06-36.56c0.956-12.488,1.378-24.495,1.26-36.021
		c-0.123-11.526-0.962-22.273-2.521-32.239c-1.565-9.961-4.262-18.55-8.102-25.755c-2.404-4.321-6.484-4.866-12.247-1.624
		c-5.763,3.242-12.13,8.829-19.089,16.75c-6.971,7.926-13.93,17.418-20.895,28.458c-6.965,11.051-12.851,22.214-17.653,33.5
		c-4.802,11.292-7.985,21.856-9.545,31.7c-1.565,9.849-0.305,17.53,3.781,23.052c2.398,3.365,5.945,5.224,10.629,5.581
		c4.684,0.363,9.662,0.246,14.95-0.358c5.277-0.598,10.5-1.202,15.665-1.8C144.307,273.405,148.686,273.822,152.292,275.264z"/>
</g>
<path fill="#E74B3B" d="M249.73,2.976C113.789,2.976,3.587,113.178,3.587,249.119S113.789,495.262,249.73,495.262
	S495.873,385.06,495.873,249.119S385.671,2.976,249.73,2.976z M249.73,482.955c-129.144,0-233.836-104.692-233.836-233.836
	S120.586,15.283,249.73,15.283s233.836,104.692,233.836,233.836S378.874,482.955,249.73,482.955z"/>
</svg>
