<?xml version="1.0" encoding="utf-8"?>
<!-- Generator: Adobe Illustrator 17.0.0, SVG Export Plug-In . SVG Version: 6.00 Build 0)  -->
<!DOCTYPE svg PUBLIC "-//W3C//DTD SVG 1.1//EN" "http://www.w3.org/Graphics/SVG/1.1/DTD/svg11.dtd">
<svg version="1.1" id="Calque_1" xmlns="http://www.w3.org/2000/svg" xmlns:xlink="http://www.w3.org/1999/xlink" x="0px" y="0px"
	 width="500px" height="232.857px" viewBox="0 0 500 232.857" enable-background="new 0 0 500 232.857" xml:space="preserve">
<g>
	<path fill="#E74B3B" d="M53.614,114.576c1.248,0.939,2.029,1.916,2.344,2.932c0.313,1.019,0.313,1.995,0,2.932
		c-0.315,0.939-0.977,1.684-1.993,2.229c-1.019,0.55-2.228,0.821-3.636,0.821c-4.22,0.157-8.601,0.55-13.134,1.172
		c-4.537,0.626-8.796,0.744-12.783,0.351c-3.987-0.387-7.622-1.642-10.907-3.753c-3.283-2.111-5.785-5.745-7.505-10.907
		c-1.254-4.064-1.565-8.872-0.937-14.425c0.622-5.549,1.913-11.374,3.869-17.473c1.953-6.098,4.377-12.273,7.27-18.53
		c2.892-6.251,5.942-12.197,9.149-17.826c3.203-5.629,6.41-10.788,9.616-15.48c3.203-4.69,6.056-8.521,8.561-11.493
		c1.407-1.561,3.085-3.243,5.043-5.043c1.953-1.796,4.064-3.283,6.333-4.455c2.264-1.174,4.573-1.914,6.917-2.229
		c2.346-0.311,4.692,0.08,7.038,1.174c3.127,1.407,5.745,3.44,7.856,6.097c2.111,2.661,3.871,5.631,5.278,8.914
		c1.407,3.283,2.541,6.648,3.401,10.086c0.857,3.441,1.525,6.566,1.993,9.382c1.25,8.29,1.876,17.202,1.876,26.738
		c0,9.54-0.275,19.196-0.821,28.967c-0.55,9.775-1.136,19.467-1.758,29.084c-0.628,9.616-0.785,18.57-0.47,26.856v3.753
		c0.781-1.876,1.642-3.713,2.581-5.513c0.937-1.796,1.876-3.634,2.814-5.511c2.657-4.846,5.432-10.399,8.326-16.654
		c2.892-6.251,5.824-12.548,8.796-18.881c2.97-6.333,5.982-12.468,9.03-18.412c3.05-5.94,6.058-11.178,9.03-15.715
		c0.939-1.407,2.031-2.892,3.285-4.457c1.248-1.559,2.657-3.008,4.22-4.339c1.561-1.327,3.245-2.382,5.043-3.167
		c1.796-0.781,3.636-1.015,5.513-0.702c3.127,0.315,5.43,1.682,6.919,4.104c1.485,2.426,2.228,5.043,2.228,7.858
		c0,0.315-0.04,1.017-0.116,2.109c-0.08,1.098-0.118,1.876-0.118,2.346c0,0.47-0.04,1.096-0.116,1.876
		c-0.08,0.785-0.199,1.33-0.351,1.642c0,1.876-0.04,5.083-0.118,9.618c-0.08,4.535-0.197,9.227-0.351,14.071
		c-0.158,5.629-0.315,11.727-0.47,18.295c0,2.191-0.04,4.772-0.116,7.74c-0.082,2.972-0.082,6.139,0,9.5
		c0.076,3.363,0.271,6.765,0.586,10.202c0.311,3.441,0.781,6.725,1.407,9.851c2.657-7.975,5.824-15.869,9.5-23.69
		c3.672-7.816,7.072-15.556,10.202-23.22c3.127-7.505,6.37-15.598,9.735-24.276c3.359-8.679,6.837-17.395,10.437-26.152
		c3.594-8.755,7.23-17.356,10.907-25.801c3.672-8.444,7.387-16.337,11.141-23.69c0.779-1.407,1.794-2.266,3.048-2.581
		c1.25-0.311,2.346-0.235,3.283,0.235c0.939,0.47,1.68,1.29,2.229,2.462c0.546,1.174,0.506,2.544-0.118,4.106
		c-3.598,7.505-7.116,15.56-10.554,24.157c-3.441,8.603-6.803,17.358-10.086,26.27c-3.285,8.912-6.492,17.79-9.616,26.621
		c-3.13,8.836-6.098,17.162-8.914,24.98c-3.753,10.477-7.545,21.109-11.374,31.897c-3.835,10.79-7.939,21.344-12.315,31.664
		c-3.283,3.753-6.959,4.533-11.023,2.346c-0.626-0.47-1.605-1.254-2.932-2.346c-1.33-1.096-2.386-2.033-3.167-2.814
		c-2.661-3.596-4.537-9.185-5.629-16.77c-1.096-7.584-1.76-15.833-1.993-24.745c-0.235-8.914-0.275-17.902-0.118-26.973
		c0.155-9.067,0.235-16.889,0.235-23.455c-4.848,8.601-9.111,16.967-12.783,25.096c-3.676,8.131-7.078,16.106-10.202,23.924
		c-3.13,7.82-6.257,15.48-9.382,22.985c-3.13,7.505-6.648,14.856-10.555,22.046c-2.661,5.161-4.927,8.328-6.803,9.5
		c-1.876,1.174-4.77,0.899-8.677-0.821c-2.661-1.722-4.655-4.302-5.982-7.74c-1.33-3.441-2.308-7.154-2.932-11.141
		c-0.626-3.987-0.977-7.856-1.056-11.609c-0.08-3.753-0.116-6.879-0.116-9.383c0-5.314,0.311-11.493,0.939-18.528
		c0.622-7.036,1.288-14.425,1.993-22.165c0.704-7.74,1.367-15.675,1.993-23.808c0.624-8.128,0.899-15.948,0.823-23.455
		c-0.082-7.505-0.628-14.501-1.643-20.991c-1.017-6.488-2.777-12.081-5.276-16.77c-1.565-2.815-4.222-3.167-7.975-1.056
		s-7.898,5.745-12.432,10.907c-4.537,5.159-9.07,11.338-13.604,18.528c-4.537,7.194-8.366,14.465-11.493,21.813
		c-3.13,7.353-5.201,14.23-6.215,20.641c-1.019,6.413-0.199,11.414,2.462,15.01c1.561,2.191,3.869,3.401,6.919,3.634
		c3.048,0.235,6.291,0.158,9.733-0.233c3.438-0.389,6.839-0.781,10.204-1.174C48.413,113.367,51.269,113.638,53.614,114.576z"/>
	<path fill="#E74B3B" d="M191.765,199.483c-1.565,1.092-3.012,1.25-4.339,0.47c-1.33-0.785-2.31-1.995-2.932-3.636
		c-0.626-1.642-0.821-3.365-0.586-5.159c0.235-1.8,1.132-3.249,2.697-4.341c1.25-0.785,2.539-1.682,3.869-2.697
		c1.327-1.019,2.617-2.151,3.871-3.401l3.518-3.283c2.657-2.657,5.238-5.549,7.74-8.677c2.5-3.127,4.844-6.293,7.038-9.5
		c2.187-3.203,4.22-6.253,6.097-9.147c1.876-2.892,3.52-5.512,4.927-7.858c8.912-15.165,16.572-30.96,22.985-47.379
		c6.41-16.417,12.743-32.678,18.998-48.786c2.189-5.471,4.182-10.983,5.982-16.536c1.796-5.549,3.869-10.983,6.215-16.301
		c1.876-3.127,4.142-5.003,6.803-5.629c2.657-0.622,5.471,0.158,8.442,2.346c1.561,1.407,2.541,3.207,2.932,5.394
		c0.389,2.191,0.506,4.457,0.353,6.803c-0.158,2.344-0.47,4.613-0.939,6.801c-0.47,2.191-0.785,4.068-0.937,5.629
		c-1.096,8.601-2.27,17.122-3.52,25.566c-1.252,8.444-2.426,16.969-3.518,25.566c-0.47,3.911-1.136,9.147-1.993,15.715
		c-0.861,6.568-1.605,13.684-2.229,21.344c6.41-3.127,12.508-5.94,18.295-8.444c5.784-2.499,11.178-4.69,16.184-6.566
		c1.561-0.624,2.932-0.664,4.104-0.118c1.174,0.55,1.995,1.29,2.462,2.229c0.47,0.937,0.546,2.033,0.235,3.283
		c-0.315,1.254-1.172,2.268-2.579,3.048c-6.883,4.069-13.567,8.21-20.055,12.432c-6.49,4.222-13.016,8.444-19.584,12.667
		c0,7.662,0.506,14.776,1.525,21.344c1.014,6.566,3.008,11.573,5.98,15.01c1.25,1.561,2.892,2.657,4.927,3.283
		c2.029,0.624,3.905,1.409,5.629,2.346c1.248,0.939,2.029,1.913,2.344,2.932c0.313,1.015,0.313,1.995,0,2.932
		c-0.315,0.939-0.977,1.678-1.993,2.228c-1.019,0.548-2.228,0.823-3.636,0.823c-2.344-1.254-4.772-2.27-7.27-3.05
		c-2.502-0.785-4.848-1.956-7.036-3.518c-2.035-1.407-3.795-3.558-5.278-6.45c-1.489-2.892-2.697-6.018-3.636-9.382
		c-0.937-3.361-1.722-6.839-2.346-10.439c-0.626-3.594-1.096-6.956-1.407-10.084c-2.972,1.876-5.904,3.753-8.796,5.629
		c-2.896,1.876-5.827,3.674-8.796,5.394c-9.697,5.787-19.899,12.119-30.609,18.998C211.192,186.19,201.146,192.915,191.765,199.483z
		 M271.746,77.752c-5.159,12.197-10.554,24.276-16.182,36.238c-5.631,11.962-12.121,23.419-19.467,34.362
		c10.473-6.568,21.42-12.743,32.836-18.53c-0.315-8.912-0.158-17.627,0.468-26.152C270.024,95.148,270.809,86.511,271.746,77.752z"
		/>
	<path fill="#E74B3B" d="M342.815,112.699c0.937,1.254,1.208,2.504,0.821,3.753c-0.393,1.254-1.056,2.27-1.995,3.05
		c-0.937,0.785-2.033,1.212-3.283,1.29c-1.254,0.08-2.346-0.429-3.283-1.525c-2.974-3.438-4.927-7.935-5.864-13.487
		c-0.939-5.549-1.015-11.645-0.235-18.294c0.781-6.644,2.264-13.604,4.455-20.876c2.189-7.27,4.963-14.306,8.328-21.109
		c3.359-6.801,7.23-13.094,11.609-18.881c4.377-5.782,9.067-10.592,14.073-14.425c5.003-3.829,10.239-6.333,15.715-7.505
		c5.471-1.172,11.023-0.586,16.652,1.76c2.97,1.252,4.417,4.339,4.341,9.263c-0.082,4.927-1.056,10.947-2.932,18.061
		c-1.876,7.118-4.381,14.858-7.505,23.22c-3.13,8.368-6.139,16.618-9.03,24.745c-2.896,8.133-5.358,15.831-7.389,23.104
		c-2.035,7.27-2.972,13.251-2.815,17.942c0.155,4.692,1.68,7.78,4.575,9.265c2.89,1.487,7.933,0.51,15.127-2.932
		c7.505-3.596,13.957-8.286,19.351-14.073c5.394-5.784,10.672-12.039,15.831-18.763c5.784-7.975,10.672-16.184,14.659-24.629
		c3.987-8.442,8.246-16.887,12.783-25.331c1.561-2.499,3.401-4.222,5.512-5.159c2.111-0.939,4.024-1.174,5.745-0.704
		c1.72,0.47,3.127,1.565,4.222,3.285c1.092,1.722,1.485,3.985,1.174,6.801c-1.409,7.036-3.014,13.997-4.808,20.874
		c-1.8,6.883-3.247,13.839-4.341,20.876c-0.468,2.344-0.861,5.005-1.172,7.975c-0.315,2.972-0.626,6.02-0.939,9.147
		c-0.315,3.13-0.55,6.179-0.702,9.147c-0.158,2.972-0.315,5.629-0.47,7.975c5.003-1.718,10.122-3.401,15.364-5.043
		c5.236-1.642,10.437-3.401,15.596-5.278c1.409,0,2.541,0.317,3.401,0.939c0.857,0.626,1.407,1.407,1.642,2.346
		c0.235,0.937,0.076,1.916-0.47,2.932c-0.55,1.019-1.447,1.916-2.697,2.697c-5.629,2.033-11.298,4.027-17.005,5.98
		c-5.709,1.958-11.298,4.027-16.768,6.217c-0.47,2.814-0.863,5.629-1.174,8.442c-0.315,2.815-0.702,5.553-1.172,8.21
		c-0.939,5.944-2.075,11.493-3.401,16.654c-1.33,5.159-3.09,10.202-5.278,15.127c-2.191,4.927-5.007,9.771-8.442,14.543
		c-3.441,4.768-7.822,9.576-13.136,14.424c-4.068,3.753-8.992,6.721-14.776,8.912c-5.787,2.189-11.575,3.285-17.356,3.285
		c-5.787,0-11.025-1.214-15.715-3.636c-4.692-2.426-7.898-6.45-9.616-12.079c-3.285-10.79-3.207-20.252,0.235-28.381
		c3.436-8.128,8.912-15.282,16.417-21.46c7.505-6.175,16.337-11.529,26.505-16.066c10.162-4.533,20.17-8.679,30.021-12.432
		l2.346-29.788c-0.315,0.626-0.626,1.174-0.939,1.642c-0.315,0.47-0.702,0.939-1.172,1.409
		c-5.474,7.505-11.727,14.776-18.763,21.811c-7.038,7.038-15.012,12.59-23.924,16.654c-2.191,0.937-4.808,1.993-7.858,3.167
		c-3.048,1.172-6.255,2.033-9.616,2.579c-3.363,0.55-6.801,0.55-10.319,0c-3.52-0.546-6.767-2.069-9.735-4.573
		c-3.13-3.438-4.808-8.091-5.043-13.955c-0.235-5.864,0.429-12.35,1.995-19.467c1.561-7.114,3.713-14.579,6.45-22.399
		c2.733-7.816,5.513-15.364,8.326-22.634c2.815-7.27,5.314-13.993,7.505-20.172c2.189-6.175,3.518-11.218,3.987-15.127
		c0.47-3.907-0.235-6.37-2.111-7.389c-1.876-1.015-5.474,0.04-10.788,3.167c-5.161,2.814-9.656,6.566-13.487,11.258
		c-3.833,4.692-7.036,9.775-9.616,15.245c-2.581,5.476-4.69,11.141-6.333,17.005c-1.642,5.864-2.854,11.456-3.634,16.77
		c-0.315,1.876-0.586,3.909-0.821,6.098c-0.235,2.191-0.315,4.419-0.235,6.684c0.076,2.268,0.351,4.419,0.821,6.45
		C340.704,109.34,341.561,111.138,342.815,112.699z M438.51,167.349c0.781-3.594,1.443-7.112,1.993-10.554
		c0.546-3.438,1.056-7.425,1.525-11.962l-2.581,1.172c-5.159,2.035-10.907,4.537-17.24,7.505
		c-6.331,2.972-12.277,6.179-17.824,9.616c-5.553,3.441-10.321,6.961-14.308,10.555c-3.987,3.598-6.297,7.036-6.919,10.321
		c-1.407,7.975-0.668,14.073,2.228,18.294c2.892,4.222,6.763,6.604,11.611,7.154c4.844,0.546,10.086-0.586,15.715-3.401
		c5.629-2.814,10.473-7.27,14.541-13.369c2.97-4.379,5.354-8.525,7.154-12.43C436.201,176.343,437.571,172.041,438.51,167.349z"/>
</g>
</svg>
