<?xml version="1.0" encoding="utf-8"?>
<!-- Generator: Adobe Illustrator 18.0.0, SVG Export Plug-In . SVG Version: 6.00 Build 0)  -->
<!DOCTYPE svg PUBLIC "-//W3C//DTD SVG 1.1//EN" "http://www.w3.org/Graphics/SVG/1.1/DTD/svg11.dtd">
<svg version="1.1" id="Layer_2" xmlns="http://www.w3.org/2000/svg" xmlns:xlink="http://www.w3.org/1999/xlink" x="0px" y="0px"
	 viewBox="23 36.4 17.3 26.8" enable-background="new 23 36.4 17.3 26.8" xml:space="preserve">
<g id="Layer_1">
	<rect x="27.3" y="42" stroke="#231F20" stroke-miterlimit="10" width="8.7" height="7.4"/>
	<path fill="#FF776B" stroke="#000000" stroke-miterlimit="10" d="M35.5,53.4c-3.2,4.5-3.6,8.4-3.6,8.4c-0.1,0.3-0.4,0.3-0.4,0
		c0,0-0.6-3.8-3.7-8.4c-2.6-3.6-3.7-5-3.7-7.9c0-4.2,3.3-7.5,7.5-7.5c4.2,0,7.6,3.3,7.6,7.5C39.2,48.4,37,51.2,35.5,53.4z
		 M34.6,45.6c0-1.6-1.3-2.9-2.9-2.9c-1.5,0-2.8,1.3-2.8,2.9c0,1.6,1.3,3,2.8,3C33.3,48.6,34.6,47.2,34.6,45.6z"/>
</g>
</svg>
