<?xml version="1.0" encoding="utf-8"?>
<!-- Generator: Adobe Illustrator 17.0.0, SVG Export Plug-In . SVG Version: 6.00 Build 0)  -->
<!DOCTYPE svg PUBLIC "-//W3C//DTD SVG 1.1//EN" "http://www.w3.org/Graphics/SVG/1.1/DTD/svg11.dtd">
<svg version="1.1" xmlns="http://www.w3.org/2000/svg" xmlns:xlink="http://www.w3.org/1999/xlink" x="0px" y="0px"
	 width="32.833px" height="32.833px" viewBox="17.509 33.667 32.833 32.833" enable-background="new 17.509 33.667 32.833 32.833"
	 xml:space="preserve">
<g id="Calque_1">
	<g>
		<circle fill="#E0F2F1" cx="33.926" cy="50.083" r="13.549"/>
		<path fill="#34495E" d="M33.926,35.083c-8.284,0-15,6.716-15,15s6.716,15,15,15c8.284,0,15-6.716,15-15
			S42.21,35.083,33.926,35.083z M33.926,63.549c-7.437,0-13.465-6.029-13.465-13.465s6.029-13.465,13.465-13.465
			s13.465,6.029,13.465,13.465S41.363,63.549,33.926,63.549z"/>
	</g>
</g>
<g id="Calque_2">
	<g>
		<path fill="#34495E" d="M38.237,50.024c0.922,2.03,1.629,4.119,1.832,6.356c0.33,3.649-1.43,4.516-1.43,4.516
			c1.43-4.516,0.095-5.79,0.018-5.706c-0.794,0.867-1.5,1.758-2.357,2.466c0.654-0.54-2.667,2.39-5.409-0.168
			c-0.761-0.71-2.377-3.071-2.439-3.049c-0.002,0.001-0.004,0.001-0.006,0.002c-0.065,0.024-0.172,1.924,1.487,5.615
			c-0.861-0.363-2.766-2.61-2.699-8.017c0.347-2.312,1.29-4.293,2.868-5.934c0.112-0.117,0.3,0.027,0.215,0.165
			c-0.143,0.23-0.272,0.465-0.365,0.713c-0.551,1.478-1.056,2.978-1.469,4.499c-0.127,0.467,0.045,1.048,0.185,1.547
			c0.455,1.613,1.255,3.035,2.513,4.168c1.654,1.489,3.217,1.513,4.931,0.088c0.15-0.124,0.29-0.261,0.43-0.397
			c1.626-1.587,2.614-3.299,1.337-5.611c-0.483-0.875-0.86-1.808-1.198-2.782c-0.049-0.142,0.137-0.246,0.233-0.13
			c0.404,0.492,0.807,0.984,1.211,1.475C38.162,49.902,38.199,49.963,38.237,50.024z"/>
		<path fill="#E84E40" d="M37.447,48.22c-1.138-0.983-2.282-1.958-3.404-2.959c-0.159-0.142-0.301-0.301-0.433-0.471
			c-0.094-0.121,0.05-0.281,0.18-0.198c1.664,1.075,3.343,2.128,4.973,3.252c4.491,3.096,5.189,5.731,2.585,10.716
			c-0.073,0.14-0.033,0.154,0,0C42.508,53.194,40.631,50.972,37.447,48.22z"/>
		<path fill="#34495E" d="M32.355,39.282c0.137,0.012,0.169,0.2,0.045,0.259c-0.686,0.323-1.356,0.612-1.97,0.992
			c-2.495,1.543-3.971,3.895-4.781,6.619c-1.663,5.595,0.399,11.006,1.583,12.542c0.33,0.428-3.905-1.951-2.977-12.396
			c0.969-3.11,2.713-5.667,5.603-7.304C30.617,39.563,31.43,39.202,32.355,39.282z"/>
		<path fill="#E84E40" d="M26.647,55.239c0,0-1.969-5.757,1.229-9.845c0.635-0.812,2.702-2.006,2.75-1.952
			c0.01,0.011,0.02,0.022,0.03,0.033c0.044,0.049-0.768,1.479-1.399,1.83C25.661,47.717,26.648,55.252,26.647,55.239z"/>
		<path fill="#34495E" d="M43.461,53.192c-1.069-5.607-2.809-10.783-8.498-13.551c-0.13-0.063-0.085-0.26,0.059-0.257
			c1.388,0.029,2.482,0.615,3.478,1.357c2.558,1.906,3.933,4.592,4.609,7.625c0.348,1.563,0.428,3.187,0.62,4.785
			c0.008,0.069-0.037,0.132-0.104,0.147c-0.001,0-0.002,0-0.003,0C43.548,53.315,43.475,53.266,43.461,53.192z"/>
		<path fill="#E84E40" d="M35.284,54.958c0.035,0.037,0.047,0.093,0.029,0.14c-0.258,0.714-0.651,1.258-1.537,1.267
			c-0.88,0.009-1.325-0.481-1.551-1.252c-0.012-0.042-0.003-0.089,0.024-0.124C33.153,53.832,34.206,53.813,35.284,54.958z"/>
		<path fill="#34495E" d="M32.431,43.171c-0.063-1.099,0.197-2.125,0.797-3.063c0.149-0.232,0.511-0.073,0.441,0.194l-0.759,2.914
			C32.841,43.482,32.446,43.446,32.431,43.171z"/>
	</g>
</g>
</svg>
