<?xml version="1.0" encoding="utf-8"?>
<!-- Generator: Adobe Illustrator 17.0.0, SVG Export Plug-In . SVG Version: 6.00 Build 0)  -->
<!DOCTYPE svg PUBLIC "-//W3C//DTD SVG 1.1//EN" "http://www.w3.org/Graphics/SVG/1.1/DTD/svg11.dtd">
<svg version="1.1" xmlns="http://www.w3.org/2000/svg" xmlns:xlink="http://www.w3.org/1999/xlink" x="0px" y="0px"
	 width="32.833px" height="32.833px" viewBox="17.509 33.667 32.833 32.833" enable-background="new 17.509 33.667 32.833 32.833"
	 xml:space="preserve">
<g id="Calque_1">
	<g>
		<circle fill="#E0F2F1" cx="33.926" cy="50.083" r="13.549"/>
		<path fill="#34495E" d="M33.926,35.083c-8.284,0-15,6.716-15,15s6.716,15,15,15c8.284,0,15-6.716,15-15
			S42.21,35.083,33.926,35.083z M33.926,63.549c-7.437,0-13.465-6.029-13.465-13.465s6.029-13.465,13.465-13.465
			s13.465,6.029,13.465,13.465S41.363,63.549,33.926,63.549z"/>
	</g>
</g>
<g id="Calque_2">
	<g id="Your_Icon">
		<g>
			<path fill="#E84E40" d="M28.792,44.417c0.16,0.068,0.332,0.102,0.513,0.102c0.936,0,1.976-0.91,2.529-2.213
				c0.244-0.575,0.366-1.148,0.379-1.667v-0.174c-0.021-0.861-0.358-1.551-0.973-1.812c-0.16-0.068-0.332-0.102-0.513-0.102
				c-0.936,0-1.976,0.91-2.529,2.213C27.512,42.38,27.773,43.985,28.792,44.417z"/>
			<path fill="#34495E" d="M39.57,51.754v-5.86c0-0.614-1.278-0.993-2.462-0.993s-2.462,0.38-2.462,0.993v5.86h-0.461v-2.448h-1.469
				v-2.448h-0.504v-4.135c-0.656,1.373-1.826,2.314-2.908,2.314c-0.25,0-0.491-0.048-0.715-0.143
				c-0.318-0.135-0.58-0.353-0.784-0.633v2.597h-0.504v2.448h-1.469v10.31h8.092V59.61l8.092,0.006v-7.862H39.57z M27.821,47.377
				h4.378v1.93h-4.378V47.377z M28.282,59.105h-1.93v-9.28h0.95h0.979V59.105z M32.198,59.105H28.8v-9.28h3.917h0.95v1.93h-1.469
				V59.105z M35.136,53.713h-2.419v-1.44h1.929v0h0.49V53.713z M35.164,45.91c0.088-0.153,0.828-0.491,1.944-0.491
				c1.116,0,1.856,0.338,1.944,0.491v5.845h-3.888V45.91z M36.114,53.713h-0.461v-1.44h0.461V53.713z M37.583,53.713h-0.951v-1.44
				h0.951V53.713z M41.5,53.713h-3.398v-1.44h1.469v0h1.93L41.5,53.713L41.5,53.713z"/>
		</g>
	</g>
</g>
</svg>
