<?xml version="1.0" encoding="utf-8"?>
<!-- Generator: Adobe Illustrator 17.0.0, SVG Export Plug-In . SVG Version: 6.00 Build 0)  -->
<!DOCTYPE svg PUBLIC "-//W3C//DTD SVG 1.1//EN" "http://www.w3.org/Graphics/SVG/1.1/DTD/svg11.dtd">
<svg version="1.1" xmlns="http://www.w3.org/2000/svg" xmlns:xlink="http://www.w3.org/1999/xlink" x="0px" y="0px"
	 width="32.833px" height="32.833px" viewBox="17.509 33.667 32.833 32.833" enable-background="new 17.509 33.667 32.833 32.833"
	 xml:space="preserve">
<g id="Calque_1">
	<g>
		<circle fill="#E0F2F1" cx="33.926" cy="50.083" r="13.549"/>
		<path fill="#34495E" d="M33.926,35.083c-8.284,0-15,6.716-15,15s6.716,15,15,15c8.284,0,15-6.716,15-15
			S42.21,35.083,33.926,35.083z M33.926,63.549c-7.437,0-13.465-6.029-13.465-13.465s6.029-13.465,13.465-13.465
			s13.465,6.029,13.465,13.465S41.363,63.549,33.926,63.549z"/>
	</g>
</g>
<g id="Calque_2">
	<g>
		<path fill="#34495E" d="M44.154,54.078c0.356-0.294,0.514-0.786,0.36-1.251c-0.2-0.604-0.852-0.932-1.457-0.732
			c-0.022,0.007-0.044,0.015-0.066,0.024c-0.053-0.109-0.124-0.204-0.205-0.289c-0.274-4.617-4.115-8.29-8.8-8.29
			c-4.575,0-8.347,3.503-8.775,7.968c-0.427,0.222-0.704,0.644-0.749,1.109c-0.113,0.004-0.227,0.024-0.34,0.062
			c-0.645,0.214-0.995,0.91-0.781,1.555c0.155,0.467,0.561,0.779,1.018,0.835c-0.025,0.164-0.013,0.337,0.043,0.505
			c0.19,0.573,0.808,0.883,1.38,0.693c0.192-0.064,0.353-0.175,0.477-0.317c0.277,0.537,0.91,0.807,1.502,0.612
			c0.342-0.113,0.602-0.361,0.741-0.664c0.303,0.189,0.685,0.247,1.05,0.125c0.652-0.216,1.006-0.92,0.79-1.572
			c-0.046-0.139-0.114-0.264-0.199-0.374c0.356-0.294,0.514-0.786,0.36-1.251c-0.2-0.602-0.848-0.929-1.451-0.733
			c0.139-2.605,2.295-4.682,4.933-4.682c2.521,0,4.603,1.896,4.905,4.336c-0.237,0.231-0.387,0.54-0.419,0.87
			c-0.113,0.004-0.227,0.024-0.34,0.062c-0.645,0.214-0.995,0.91-0.781,1.555c0.155,0.467,0.561,0.779,1.018,0.835
			c-0.024,0.164-0.013,0.337,0.043,0.505c0.19,0.573,0.808,0.883,1.38,0.693c0.192-0.064,0.354-0.175,0.477-0.317
			c0.277,0.537,0.91,0.807,1.501,0.612c0.342-0.113,0.602-0.361,0.742-0.664c0.303,0.189,0.684,0.247,1.05,0.125
			c0.652-0.216,1.006-0.92,0.789-1.572C44.308,54.312,44.239,54.187,44.154,54.078z M26.014,51.361
			c0.493-3.962,3.879-7.04,7.973-7.04c4.128,0,7.537,3.128,7.985,7.138c-0.08-0.003-0.161,0.005-0.242,0.019
			c-0.439-3.885-3.743-6.914-7.743-6.914c-3.976,0-7.263,2.993-7.734,6.844C26.175,51.385,26.095,51.37,26.014,51.361z
			 M39.628,51.372c-0.469-2.689-2.819-4.741-5.641-4.741c-2.877,0-5.264,2.133-5.667,4.9c-0.079-0.028-0.16-0.048-0.244-0.059
			c0.429-2.877,2.916-5.091,5.911-5.091c2.952,0,5.409,2.152,5.89,4.968C39.794,51.349,39.711,51.357,39.628,51.372z M40.704,51.625
			c-0.366-3.383-3.238-6.025-6.717-6.025c-3.49,0-6.37,2.66-6.721,6.058c-0.107,0.072-0.201,0.158-0.277,0.257
			c0.229-3.662,3.279-6.572,6.998-6.572c3.713,0,6.761,2.901,6.997,6.556C40.903,51.794,40.809,51.702,40.704,51.625z"/>
		<path fill="#E84E40" d="M26.253,51.408c0.145-2.589,2.633-6.755,7.734-6.844c3.923,0.031,7.31,2.871,7.743,6.914
			c0,0-0.56,0.087-0.746,0.423c-0.012-1.087-1.008-6.266-6.997-6.556c-3.766,0.094-6.69,2.803-6.998,6.572
			C26.826,51.557,26.253,51.408,26.253,51.408z"/>
	</g>
</g>
</svg>
