<?xml version="1.0" encoding="utf-8"?>
<!-- Generator: Adobe Illustrator 17.0.0, SVG Export Plug-In . SVG Version: 6.00 Build 0)  -->
<!DOCTYPE svg PUBLIC "-//W3C//DTD SVG 1.1//EN" "http://www.w3.org/Graphics/SVG/1.1/DTD/svg11.dtd">
<svg version="1.1" xmlns="http://www.w3.org/2000/svg" xmlns:xlink="http://www.w3.org/1999/xlink" x="0px" y="0px"
	 width="32.833px" height="32.833px" viewBox="17.509 33.667 32.833 32.833" enable-background="new 17.509 33.667 32.833 32.833"
	 xml:space="preserve">
<g id="Calque_1">
	<g>
		<circle fill="#E0F2F1" cx="33.926" cy="50.083" r="13.549"/>
		<path fill="#34495E" d="M33.926,35.083c-8.284,0-15,6.716-15,15s6.716,15,15,15c8.284,0,15-6.716,15-15
			S42.21,35.083,33.926,35.083z M33.926,63.549c-7.437,0-13.465-6.029-13.465-13.465s6.029-13.465,13.465-13.465
			s13.465,6.029,13.465,13.465S41.363,63.549,33.926,63.549z"/>
	</g>
</g>
<g id="Calque_2">
	<g>
		<path fill="#E84E40" d="M28.816,51.477c0,0.576-0.312,0.795-0.696,0.795s-0.696-0.219-0.696-0.795s0.312-1.043,0.696-1.043
			S28.816,50.901,28.816,51.477z"/>
		<path fill="#E84E40" d="M34.029,52.937c-0.041-0.075-0.135-0.104-0.21-0.062c-0.075,0.041-0.103,0.135-0.062,0.21
			c0.002,0.003,0.165,0.316,0.086,0.568c-0.034,0.109-0.11,0.191-0.231,0.252c-0.176,0.088-0.354,0.076-0.531-0.033
			c-0.234-0.145-0.384-0.418-0.384-0.543c0-0.085-0.069-0.155-0.155-0.155c-0.004,0-0.008,0.002-0.012,0.002
			c-0.004,0-0.008-0.002-0.012-0.002c-0.086,0-0.155,0.07-0.155,0.155c0,0.054-0.03,0.138-0.081,0.225l-0.49,0.392
			c-0.115,0.026-0.23,0.015-0.343-0.042c-0.121-0.061-0.197-0.143-0.231-0.251c-0.081-0.254,0.084-0.566,0.086-0.569
			c0.04-0.075,0.012-0.169-0.063-0.21c-0.075-0.041-0.169-0.013-0.21,0.062c-0.009,0.017-0.229,0.429-0.109,0.809
			c0.06,0.191,0.191,0.337,0.388,0.436c0.121,0.061,0.247,0.091,0.373,0.091c0.021,0,0.041-0.003,0.062-0.004
			c0.132,0.37,0.414,0.581,0.793,0.581c0.378,0,0.66-0.21,0.793-0.579c0.015,0.001,0.031,0.003,0.046,0.003
			c0.126,0,0.252-0.03,0.374-0.091c0.197-0.099,0.328-0.246,0.388-0.436C34.258,53.366,34.039,52.955,34.029,52.937z M32.538,54.539
			c-0.235,0-0.4-0.124-0.49-0.352c0.032-0.015,0.064-0.031,0.094-0.05c0.133-0.082,0.253-0.202,0.346-0.332
			c0.171,0.223,0.391,0.34,0.539,0.397C32.936,54.425,32.772,54.539,32.538,54.539z"/>
		<g>
			<path fill="#E84E40" d="M35.343,51.797c-0.029,0-0.059-0.007-0.086-0.021c-0.091-0.048-0.126-0.16-0.078-0.251
				c0.014-0.027,0.352-0.662,0.971-0.766c0.387-0.066,0.784,0.089,1.179,0.459c0.075,0.07,0.079,0.188,0.008,0.263
				s-0.188,0.078-0.263,0.008c-0.306-0.287-0.596-0.409-0.863-0.363c-0.432,0.073-0.702,0.567-0.704,0.572
				C35.474,51.761,35.409,51.797,35.343,51.797z"/>
		</g>
		<path fill="#34495E" d="M43.377,52.181c-0.209-0.454-0.406-0.883-0.271-1.068c0.586-0.804,0.765-1.621,0.478-2.186
			c-0.165-0.326-0.475-0.52-0.826-0.52c-0.623,0-1.475,0.642-1.828,2.45c-0.114,0.587,0.135,1.125,0.375,1.646
			c0.151,0.326,0.297,0.645,0.363,0.978l0,0c-0.461-0.371-1.083-0.612-1.899-0.628c-0.032-0.006-0.063-0.014-0.095-0.02
			c0.517-0.836,0.812-1.76,0.812-2.719c0-1.172-0.165-2.201-0.491-3.087l0,0c0.618-1.209,1.128-2.969,0.916-5.354
			c-0.009-0.106-0.073-0.2-0.168-0.248c-0.057-0.029-2.891-1.42-5.894,1.72c0,0,0.001,0,0.002,0
			c-0.718-0.125-1.504-0.188-2.358-0.188c-0.896,0-1.692,0.076-2.401,0.211c-3.011-3.17-5.859-1.772-5.917-1.742
			c-0.095,0.048-0.159,0.142-0.168,0.248c-0.221,2.475,0.338,4.275,0.987,5.487v0c-0.384,1.032-0.494,2.087-0.494,2.953
			c0,0.959,0.296,1.884,0.813,2.72c-0.308,0.059-0.61,0.14-0.898,0.248c-0.064,0.024-0.097,0.095-0.073,0.159
			c0.019,0.05,0.066,0.081,0.116,0.081c0.014,0,0.029-0.002,0.043-0.008c0.305-0.113,0.628-0.195,0.959-0.252
			c0.368,0.54,0.83,1.038,1.366,1.478c-0.406,0.189-0.801,0.414-1.142,0.683c-0.054,0.042-0.063,0.12-0.021,0.174
			c0.024,0.031,0.061,0.047,0.098,0.047c0.027,0,0.054-0.009,0.077-0.027c0.354-0.28,0.775-0.512,1.207-0.703
			c1.346,1.03,3.11,1.709,5.003,1.801l0,0c-0.026,0.359,0.026,0.722,0.163,1.063c0.247,0.616,0.725,1.106,1.388,1.453
			c-0.003-0.002-0.006-0.003-0.009-0.004c-0.159,0.246-0.359,0.639-0.316,1.016c0.026,0.228,0.139,0.424,0.327,0.565
			c0.195,0.147,0.437,0.218,0.691,0.218c0.037,0,0.075-0.007,0.113-0.01c0.011,0.008,0.018,0.019,0.029,0.027
			c0.206,0.155,0.461,0.231,0.728,0.231c0.344,0,0.708-0.126,1.009-0.371c0.289-0.235,0.53-0.609,0.557-1.074
			c0.061-0.002,0.119-0.001,0.181-0.004c0.218-0.009,0.552-0.034,0.509-0.03c-0.028,0.129-0.042,0.261-0.027,0.392
			c0.029,0.257,0.156,0.476,0.367,0.635c0.216,0.163,0.485,0.242,0.766,0.242c0.169,0,0.343-0.032,0.513-0.089
			c0.138,0.047,0.285,0.072,0.436,0.072c0.363,0,0.747-0.133,1.065-0.392c0.434-0.352,0.686-0.967,0.47-1.794l0,0
			c0.4-0.225,0.739-0.487,1.009-0.786c0.536-0.594,0.783-1.304,0.735-2.11c0.004,0.066,0.003,0.129,0.003,0.193
			C44.507,54.643,43.835,53.178,43.377,52.181z M39.61,46.187c-0.345-0.625-0.79-1.161-1.338-1.605
			c0.178-1.396,1.427-2.225,1.892-2.487C40.473,43.712,39.957,45.338,39.61,46.187z M39.075,41.707c0.381,0,0.699,0.055,0.936,0.116
			c-0.496,0.275-1.755,1.103-2.021,2.545c-0.672-0.479-1.477-0.837-2.418-1.072C36.904,42.025,38.156,41.707,39.075,41.707z
			 M25.842,41.707c0.927,0,2.194,0.325,3.54,1.625c-0.997,0.27-1.795,0.674-2.435,1.16c-0.214-1.518-1.531-2.386-2.041-2.668
			C25.143,41.763,25.461,41.707,25.842,41.707z M24.752,42.094c0.481,0.271,1.798,1.149,1.905,2.632
			c-0.556,0.482-0.976,1.031-1.289,1.607C25.025,45.536,24.425,43.812,24.752,42.094z M27.717,54.449
			c1.076-0.377,2.05-0.517,2.065-0.52c0.068-0.009,0.115-0.072,0.106-0.14c-0.009-0.068-0.072-0.115-0.14-0.106
			c-0.068,0.009-1.134,0.163-2.278,0.587c-0.512-0.383-0.958-0.821-1.321-1.297c1.889-0.151,3.787,0.336,3.812,0.343
			c0.065,0.017,0.134-0.022,0.151-0.089c0.017-0.066-0.022-0.134-0.089-0.151c-0.105-0.028-2.085-0.537-4.046-0.34
			c-0.545-0.798-0.86-1.693-0.86-2.623c0-2.51,0.907-5.425,4.828-6.286c-0.171,0.571-0.564,2.023-0.314,2.555
			c0.309,0.658,1.326,0.922,1.908-2.774c0.063-0.004,0.128-0.008,0.192-0.011c-0.152,0.838-0.571,3.603,0.533,3.603
			c1.111,0,0.819-2.799,0.709-3.618c0.063,0.002,0.125,0.005,0.187,0.008c0.294,3.669,1.319,3.484,1.677,2.856
			c0.316-0.554-0.036-2.249-0.138-2.701c3.47,0.583,5.165,2.681,5.165,6.368c0,0.957-0.326,1.843-0.871,2.621
			c-1.955-0.192-3.923,0.314-4.027,0.342c-0.066,0.017-0.106,0.085-0.088,0.151c0.017,0.066,0.086,0.106,0.151,0.089
			c0.025-0.006,1.907-0.491,3.789-0.345c-0.372,0.476-0.826,0.908-1.339,1.284c-1.128-0.413-2.17-0.563-2.237-0.572
			c-0.068-0.009-0.13,0.038-0.14,0.106s0.038,0.13,0.106,0.14c0.015,0.002,0.962,0.139,2.02,0.504
			c-1.372,0.926-3.1,1.474-4.737,1.474C30.708,55.908,29.025,55.348,27.717,54.449z M34.078,60.216
			c0.002,0.03,0.011,0.057,0.016,0.086c-0.072-0.019-0.139-0.048-0.196-0.09c-0.08-0.06-0.122-0.131-0.133-0.225
			c-0.028-0.241,0.146-0.556,0.281-0.751c-0.015-0.006,0.196,0.072,0.323,0.111C34.217,59.569,34.054,59.888,34.078,60.216z
			 M38.415,60.233c-0.107-0.014-0.205-0.048-0.284-0.107c-0.076-0.057-0.114-0.121-0.124-0.209
			c-0.014-0.117,0.022-0.255,0.079-0.389c-0.074,0.009,0.131-0.016,0.303-0.042l0,0c-0.044,0.157-0.067,0.321-0.049,0.483
			C38.351,60.063,38.379,60.15,38.415,60.233L38.415,60.233z M38.721,58.799c-0.558,0.109-1.173,0.179-1.838,0.207
			c-0.083,0.004-0.163,0.004-0.244,0.005l0,0c-0.024-0.072-0.052-0.145-0.087-0.22c-0.073-0.155-0.257-0.221-0.412-0.149
			c-0.155,0.073-0.221,0.257-0.149,0.412c0.305,0.65-0.046,1.033-0.212,1.168c-0.308,0.25-0.736,0.305-0.974,0.126
			c-0.091-0.068-0.106-0.131-0.11-0.178c-0.017-0.223,0.229-0.554,0.351-0.679c0.108-0.11,0.119-0.282,0.026-0.405
			c-1.02-1.344-0.095-2.207,0.016-2.303c0.13-0.11,0.146-0.305,0.037-0.436c-0.11-0.131-0.306-0.148-0.437-0.038
			c-0.013,0.011-1.054,0.912-0.586,2.282c-0.646-0.284-1.101-0.706-1.317-1.244c-0.107-0.267-0.146-0.547-0.122-0.824
			c1.998-0.038,3.868-0.731,5.28-1.812c0.416,0.184,0.82,0.405,1.166,0.67c-0.078,0.002-0.156,0.032-0.216,0.093
			c-0.015,0.015-1.398,1.465-0.162,3.31C38.728,58.789,38.725,58.794,38.721,58.799z M41.558,57.46
			c-0.203,0.225-0.459,0.428-0.761,0.607c-0.156-0.336-0.202-0.159-0.326-0.102c-0.155,0.073-0.391,0-0.091,0.734
			c0.297,0.725-0.051,1.127-0.232,1.274c-0.336,0.274-0.805,0.333-1.068,0.135c-0.076-0.057-0.114-0.121-0.124-0.209
			c-0.036-0.313,0.282-0.775,0.396-0.912c0.093-0.111,0.097-0.271,0.01-0.387c-1.14-1.501-0.071-2.646-0.024-2.695
			c0.119-0.122,0.116-0.318-0.006-0.437c-0.016-0.016-0.036-0.024-0.055-0.036c0.02-0.008,0.039-0.019,0.053-0.037
			c0.042-0.054,0.033-0.132-0.021-0.174c-0.343-0.271-0.741-0.498-1.15-0.687c0.386-0.318,0.736-0.664,1.038-1.036
			c0.167-0.018,0.33-0.031,0.484-0.031c2.146,0,2.419,1.786,2.452,2.333C42.172,56.437,41.978,56.994,41.558,57.46z M42.679,55.215
			c-0.073-0.351-0.197-0.695-0.382-1.007c0.126-0.754-0.169-1.402-0.43-1.966c-0.218-0.471-0.405-0.877-0.33-1.267
			c0.279-1.43,0.882-1.949,1.219-1.949c0.15,0,0.232,0.098,0.274,0.181c0.132,0.259,0.1,0.819-0.426,1.54
			c-0.349,0.479-0.078,1.068,0.209,1.692C43.232,53.349,43.66,54.283,42.679,55.215L42.679,55.215z"/>
	</g>
</g>
</svg>
