<?xml version="1.0" encoding="utf-8"?>
<!-- Generator: Adobe Illustrator 17.0.0, SVG Export Plug-In . SVG Version: 6.00 Build 0)  -->
<!DOCTYPE svg PUBLIC "-//W3C//DTD SVG 1.1//EN" "http://www.w3.org/Graphics/SVG/1.1/DTD/svg11.dtd">
<svg version="1.1" xmlns="http://www.w3.org/2000/svg" xmlns:xlink="http://www.w3.org/1999/xlink" x="0px" y="0px"
	 width="32.833px" height="32.833px" viewBox="17.509 33.667 32.833 32.833" enable-background="new 17.509 33.667 32.833 32.833"
	 xml:space="preserve">
<g id="Calque_1">
	<g>
		<circle fill="#E0F2F1" cx="33.926" cy="50.083" r="13.549"/>
		<path fill="#34495E" d="M33.926,35.083c-8.284,0-15,6.716-15,15s6.716,15,15,15c8.284,0,15-6.716,15-15
			S42.21,35.083,33.926,35.083z M33.926,63.549c-7.437,0-13.465-6.029-13.465-13.465s6.029-13.465,13.465-13.465
			s13.465,6.029,13.465,13.465S41.363,63.549,33.926,63.549z"/>
	</g>
</g>
<g id="Calque_2">
	<g>
		<g id="Layer_2">
			<path fill="#34495E" d="M40.827,47.745c0,5.256-3.079,9.516-6.878,9.516c-2.877,0-5.3-2.722-6.571-6.272
				c-0.495-0.357-1.17-0.954-1.444-1.702c-0.455-1.244-1.019-2.528-0.337-2.777c0.59-0.216,1.358,0.358,1.85,1.321l0.687,0.754
				v1.823c0,0.027,0.022,0.049,0.049,0.049h1.225h1.037h1.96c0.027,0,0.049-0.022,0.049-0.049v-1.607
				c0.508-0.137,1.093-0.22,1.736-0.22c0.63,0,1.206,0.079,1.707,0.212v1.712c0,0.027,0.022,0.049,0.048,0.049h1.977h1.045h1.201
				c0.027,0,0.048-0.022,0.048-0.049v-4.302c0-0.027-0.022-0.048-0.048-0.048h-4.222c-0.027,0-0.048,0.022-0.048,0.048v1.523
				c-0.528-0.118-1.102-0.182-1.707-0.182c-0.616,0-1.2,0.067-1.736,0.189v-1.627c0-0.027-0.022-0.049-0.049-0.049h-4.223
				c-0.027,0-0.049,0.022-0.049,0.049v0.783l-1.886-1.953c-0.124-1.65,0.032-3.224,1.278-4.895c0.167-0.225,0.37-0.421,0.598-0.593
				l2.877,3.637c0.058,0.073,0.142,0.119,0.234,0.128c0.092,0.01,0.184-0.02,0.254-0.08c0.466-0.396,1.489-0.572,2.743-0.549
				c0.111,0.814,0.846,1.443,1.738,1.443c0.49,0,0.933-0.19,1.251-0.496c-0.172,0.053-0.355,0.082-0.545,0.082
				c-0.716,0-1.331-0.406-1.603-0.986c1.936,0.154,4.207,0.709,5.827,1.594C40.957,45.276,40.827,46.436,40.827,47.745z
				 M38.324,39.857c-0.035-0.025-0.069-0.05-0.103-0.075c-0.268-0.061-0.552-0.112-0.849-0.155
				C37.689,39.694,38.006,39.77,38.324,39.857z M39.772,42.492c-0.023,0-0.047-0.004-0.07-0.013
				c-3.568-1.366-7.136-1.092-8.848-0.682l0.487,0.616c0.659-0.372,1.721-0.529,2.949-0.507c0.546-0.011,4.829,0.686,6.526,1.506
				c-0.094-0.544-0.267-1.062-0.568-1.56c-0.012,0.002-0.024,0.005-0.037,0.005c-0.025,0-0.05-0.005-0.075-0.015
				c-1.46-0.604-4.896-1.359-8.381-0.961c-0.107,0.012-0.203-0.064-0.216-0.172c-0.012-0.107,0.064-0.203,0.172-0.216
				c3.491-0.398,6.662,0.305,8.175,0.837c-0.245-0.314-0.528-0.613-0.841-0.894c-2.27-0.911-7.367-0.659-9.115,0.192l0.658,0.832
				c1.685-0.444,5.473-0.794,9.253,0.653c0.101,0.038,0.151,0.151,0.113,0.252C39.924,42.444,39.85,42.492,39.772,42.492z
				 M29.221,39.733l0.463,0.585c1.415-0.732,5.035-1.071,7.688-0.691C33.905,38.905,30.556,39.392,29.221,39.733z M37.306,39.216
				c-1.127-0.615-2.344-0.988-3.356-0.988c-1.453,0-3.697,0.065-5.241,0.857l0.249,0.314C30.184,39.057,33.668,38.494,37.306,39.216
				z M32.098,47.794h-1.316c-0.016,0-0.032-0.008-0.04-0.022c-0.009-0.014-0.011-0.031-0.004-0.046l0.249-0.581l-1.004-0.443
				c-0.021-0.009-0.033-0.032-0.028-0.054c0.005-0.023,0.025-0.039,0.048-0.039h1.803c0.016,0,0.03,0.007,0.04,0.02
				c0.009,0.013,0.012,0.029,0.006,0.044l-0.255,0.764l0.523,0.265c0.02,0.01,0.031,0.033,0.026,0.055
				C32.141,47.778,32.121,47.794,32.098,47.794z M39.893,47.794h-1.315c-0.016,0-0.032-0.008-0.04-0.022
				c-0.009-0.014-0.011-0.031-0.005-0.046l0.249-0.581l-1.004-0.443c-0.021-0.009-0.032-0.032-0.028-0.054
				c0.005-0.023,0.025-0.039,0.048-0.039h1.802c0.016,0,0.03,0.007,0.04,0.02c0.009,0.013,0.012,0.029,0.006,0.044l-0.255,0.764
				l0.523,0.265c0.02,0.01,0.03,0.033,0.025,0.055C39.936,47.778,39.916,47.794,39.893,47.794z M38.864,56.11
				c-0.017-0.002-0.036-0.003-0.055-0.003c-0.512,0-1.779,0.843-3.38,1.946c-0.072,0.05-0.142,0.098-0.211,0.145
				c-0.274-0.333-0.689-0.545-1.154-0.545c-0.437,0-0.828,0.188-1.102,0.487c-0.042-0.029-0.083-0.058-0.126-0.087
				c-1.602-1.103-2.868-1.946-3.38-1.946c-0.019,0-0.038,0.001-0.055,0.003c-0.585,0.074-0.923,3.163-0.849,4.339
				c0.027,0.426,0.105,0.992,0.475,0.992c0.026,0,0.052-0.003,0.078-0.01c0.655-0.157,2.805-1.096,3.696-1.492
				c0.264,0.42,0.731,0.7,1.264,0.7c0.553,0,1.035-0.302,1.293-0.748c0.811,0.361,3.122,1.376,3.804,1.54
				c0.026,0.006,0.052,0.009,0.078,0.009c0.369,0,0.448-0.566,0.475-0.992C39.788,59.273,39.449,56.184,38.864,56.11z
				 M31.283,57.356c0.29,0.189,0.586,0.389,0.866,0.58l-0.129,0.508l-0.851-0.48L31.283,57.356z M30.273,56.735
				c0.227,0.127,0.481,0.282,0.745,0.45L30.9,57.811l-0.732-0.413L30.273,56.735z M29.449,56.399c0.002,0,0.004,0,0.006,0
				c0.116,0,0.307,0.072,0.545,0.191l-0.104,0.654l-0.654-0.369C29.314,56.623,29.386,56.449,29.449,56.399z M29.166,57.168
				l0.681,0.385L29.72,58.35l-0.704-0.418C29.062,57.653,29.114,57.392,29.166,57.168z M29.288,61.073
				c-0.1,0.033-0.185,0.058-0.252,0.075l-0.01,0.001c-0.01,0-0.057-0.031-0.103-0.183c-0.091-0.303-0.112-0.785-0.089-1.324
				l0.628,0.34L29.288,61.073z M28.852,59.318c0.025-0.355,0.066-0.723,0.117-1.075l0.703,0.417l-0.161,1.015L28.852,59.318z
				 M29.601,60.962l0.132-0.833l0.661,0.358l-0.024,0.126l0.081,0.015C30.143,60.754,29.85,60.87,29.601,60.962z M30.452,60.185
				l-0.669-0.362l0.159-1.002l0.69,0.41L30.452,60.185z M29.991,58.51l0.128-0.805l0.724,0.409l-0.153,0.81L29.991,58.51z
				 M31.585,60.151c-0.218,0.093-0.444,0.19-0.67,0.285l-0.194-0.104l0.178-0.943l0.765,0.454L31.585,60.151z M31.924,60.005
				l0.002-0.007l0.006,0.003C31.929,60.002,31.927,60.003,31.924,60.005z M31.739,59.547l-0.782-0.464l0.154-0.817l0.834,0.471
				L31.739,59.547z M32.262,59.857l-0.261-0.155l0.208-0.817l0.363,0.205c-0.001,0.018-0.003,0.037-0.003,0.055
				c0,0.188,0.036,0.366,0.1,0.532C32.552,59.729,32.415,59.79,32.262,59.857z M32.617,58.78l-0.333-0.188l0.122-0.48
				c0.091,0.062,0.179,0.123,0.264,0.182c0.04,0.027,0.078,0.054,0.117,0.08C32.711,58.498,32.653,58.635,32.617,58.78z
				 M39.248,57.932l-0.704,0.418l-0.127-0.797l0.681-0.385C39.151,57.392,39.202,57.653,39.248,57.932z M38.809,56.399
				c0.002,0,0.004,0,0.006,0c0.063,0.05,0.135,0.224,0.207,0.476l-0.654,0.369l-0.104-0.654
				C38.503,56.471,38.693,56.399,38.809,56.399z M37.991,56.735l0.105,0.662l-0.732,0.413l-0.118-0.626
				C37.51,57.017,37.764,56.862,37.991,56.735z M37.307,59.083l-0.731,0.434l-0.209-0.807l0.786-0.444L37.307,59.083z
				 M37.096,57.963l-0.805,0.454l-0.132-0.511c0.267-0.182,0.547-0.37,0.822-0.55L37.096,57.963z M35.595,58.293
				c0.099-0.068,0.202-0.139,0.308-0.212l0.125,0.484l-0.5,0.283c-0.029-0.145-0.08-0.282-0.147-0.408
				C35.45,58.392,35.521,58.343,35.595,58.293z M35.477,59.625c0.049-0.144,0.077-0.298,0.079-0.458l0.547-0.309l0.21,0.813
				l-0.312,0.185C35.795,59.766,35.614,59.686,35.477,59.625z M36.391,59.966l0.017,0.068c-0.025-0.011-0.051-0.022-0.076-0.033
				L36.391,59.966z M37.349,60.436c-0.203-0.085-0.405-0.171-0.601-0.255l0,0l-0.096-0.369l0.713-0.423l0.177,0.943L37.349,60.436z
				 M37.422,58.114l0.724-0.409l0.128,0.805l-0.699,0.414L37.422,58.114z M38.323,58.82l0.159,1.002l-0.669,0.362l-0.18-0.955
				L38.323,58.82z M37.812,60.628l0.081-0.015l-0.024-0.126l0.661-0.358l0.132,0.833C38.414,60.87,38.121,60.754,37.812,60.628z
				 M38.593,58.66l0.703-0.417c0.051,0.352,0.091,0.72,0.116,1.075l-0.658,0.357L38.593,58.66z M39.341,60.965
				c-0.046,0.152-0.092,0.183-0.102,0.183l-0.01-0.001c-0.068-0.016-0.153-0.042-0.252-0.075l-0.174-1.092l0.628-0.34
				C39.454,60.18,39.432,60.662,39.341,60.965z"/>
		</g>
		<path opacity="0" fill="#E84E40" d="M32.098,47.794h-1.316c-0.016,0-0.032-0.008-0.04-0.022c-0.009-0.014-0.011-0.031-0.004-0.046
			l0.249-0.581l-1.004-0.443c-0.021-0.009-0.033-0.032-0.028-0.054c0.005-0.023,0.025-0.039,0.048-0.039h1.803
			c0.016,0,0.03,0.007,0.04,0.02c0.009,0.013,0.012,0.029,0.006,0.044l-0.255,0.764l0.523,0.265c0.02,0.01,0.031,0.033,0.026,0.055
			C32.141,47.778,32.121,47.794,32.098,47.794z"/>
		<path opacity="0" fill="#E84E40" d="M39.893,47.794h-1.315c-0.016,0-0.032-0.008-0.04-0.022c-0.009-0.014-0.011-0.031-0.005-0.046
			l0.249-0.581l-1.004-0.443c-0.021-0.009-0.032-0.032-0.028-0.054c0.005-0.023,0.025-0.039,0.048-0.039h1.802
			c0.016,0,0.03,0.007,0.04,0.02c0.009,0.013,0.012,0.029,0.006,0.044l-0.255,0.764l0.523,0.265c0.02,0.01,0.03,0.033,0.025,0.055
			C39.936,47.778,39.916,47.794,39.893,47.794z"/>
		<circle fill="#E84E40" cx="34.076" cy="59.147" r="1.499"/>
		<g>
			<path fill="#E84E40" d="M38.864,56.11c-0.017-0.002-0.036-0.003-0.055-0.003c-0.512,0-1.779,0.843-3.38,1.946
				c-0.072,0.05-0.142,0.098-0.211,0.145c-0.274-0.333-0.689-0.545-1.154-0.545c-0.437,0-0.828,0.188-1.102,0.487
				c-0.042-0.029-0.083-0.058-0.126-0.087c-1.602-1.103-2.868-1.946-3.38-1.946c-0.019,0-0.038,0.001-0.055,0.003
				c-0.585,0.074-0.923,3.163-0.849,4.339c0.027,0.426,0.105,0.992,0.475,0.992c0.026,0,0.052-0.003,0.078-0.01
				c0.655-0.157,2.805-1.096,3.696-1.492c0.264,0.42,0.731,0.7,1.264,0.7c0.553,0,1.035-0.302,1.293-0.748
				c0.811,0.361,3.122,1.376,3.804,1.54c0.026,0.006,0.052,0.009,0.078,0.009c0.369,0,0.448-0.566,0.475-0.992
				C39.788,59.273,39.449,56.184,38.864,56.11z"/>
			<path fill="#FFFFFF" d="M31.283,57.356c0.29,0.189,0.586,0.389,0.866,0.58l-0.129,0.508l-0.851-0.48L31.283,57.356z"/>
			<path fill="#FFFFFF" d="M30.273,56.735c0.227,0.127,0.481,0.282,0.745,0.45L30.9,57.811l-0.732-0.413L30.273,56.735z"/>
			<path fill="#FFFFFF" d="M29.449,56.399c0.002,0,0.004,0,0.006,0c0.116,0,0.307,0.072,0.545,0.191l-0.104,0.654l-0.654-0.369
				C29.314,56.623,29.386,56.449,29.449,56.399z"/>
			<path fill="#FFFFFF" d="M29.166,57.168l0.681,0.385L29.72,58.35l-0.704-0.418C29.062,57.653,29.114,57.392,29.166,57.168z"/>
			<path fill="#FFFFFF" d="M29.288,61.073c-0.1,0.033-0.185,0.058-0.252,0.075l-0.01,0.001c-0.01,0-0.057-0.031-0.103-0.183
				c-0.091-0.303-0.112-0.785-0.089-1.324l0.628,0.34L29.288,61.073z"/>
			<path fill="#FFFFFF" d="M28.852,59.318c0.025-0.355,0.066-0.723,0.117-1.075l0.703,0.417l-0.161,1.015L28.852,59.318z"/>
			<path fill="#FFFFFF" d="M29.601,60.962l0.132-0.833l0.661,0.358l-0.024,0.126l0.081,0.015
				C30.143,60.754,29.85,60.87,29.601,60.962z"/>
			<polygon fill="#FFFFFF" points="30.452,60.185 29.782,59.822 29.941,58.82 30.632,59.23 			"/>
			<polygon fill="#FFFFFF" points="29.991,58.51 30.119,57.705 30.842,58.114 30.69,58.924 			"/>
			<path fill="#FFFFFF" d="M31.585,60.151c-0.218,0.093-0.444,0.19-0.67,0.285l-0.194-0.104l0.178-0.943l0.765,0.454L31.585,60.151z
				"/>
			<polygon fill="#FFFFFF" points="31.739,59.547 30.957,59.083 31.111,58.266 31.945,58.736 			"/>
			<path fill="#FFFFFF" d="M32.262,59.857l-0.261-0.155l0.208-0.817l0.363,0.205c-0.001,0.018-0.003,0.037-0.003,0.055
				c0,0.188,0.036,0.366,0.1,0.532C32.552,59.729,32.415,59.79,32.262,59.857z"/>
			<path fill="#FFFFFF" d="M32.617,58.78l-0.333-0.188l0.122-0.48c0.091,0.062,0.179,0.123,0.264,0.182
				c0.04,0.027,0.078,0.054,0.117,0.08C32.711,58.498,32.653,58.635,32.617,58.78z"/>
			<path fill="#FFFFFF" d="M39.248,57.932l-0.704,0.418l-0.127-0.797l0.681-0.385C39.151,57.392,39.202,57.653,39.248,57.932z"/>
			<path fill="#FFFFFF" d="M38.809,56.399c0.002,0,0.004,0,0.006,0c0.063,0.05,0.135,0.224,0.207,0.476l-0.654,0.369l-0.104-0.654
				C38.503,56.471,38.693,56.399,38.809,56.399z"/>
			<path fill="#FFFFFF" d="M37.991,56.735l0.105,0.662l-0.732,0.413l-0.118-0.626C37.51,57.017,37.764,56.862,37.991,56.735z"/>
			<polygon fill="#FFFFFF" points="37.307,59.083 36.576,59.517 36.367,58.709 37.153,58.266 			"/>
			<path fill="#FFFFFF" d="M37.096,57.963l-0.805,0.454l-0.132-0.511c0.267-0.182,0.547-0.37,0.822-0.55L37.096,57.963z"/>
			<path fill="#FFFFFF" d="M35.595,58.293c0.099-0.068,0.202-0.139,0.308-0.212l0.125,0.484l-0.5,0.283
				c-0.029-0.145-0.08-0.282-0.147-0.408C35.45,58.392,35.521,58.343,35.595,58.293z"/>
			<path fill="#FFFFFF" d="M35.477,59.625c0.049-0.144,0.077-0.298,0.079-0.458l0.547-0.309l0.21,0.813l-0.312,0.185
				C35.795,59.766,35.614,59.686,35.477,59.625z"/>
			<path fill="#FFFFFF" d="M37.349,60.436c-0.203-0.085-0.405-0.171-0.601-0.255l0,0l-0.096-0.369l0.713-0.423l0.177,0.943
				L37.349,60.436z"/>
			<polygon fill="#FFFFFF" points="37.422,58.114 38.145,57.705 38.273,58.51 37.575,58.924 			"/>
			<polygon fill="#FFFFFF" points="38.323,58.82 38.482,59.822 37.813,60.185 37.632,59.23 			"/>
			<path fill="#FFFFFF" d="M37.812,60.628l0.081-0.015l-0.024-0.126l0.661-0.358l0.132,0.833
				C38.414,60.87,38.121,60.754,37.812,60.628z"/>
			<path fill="#FFFFFF" d="M38.593,58.66l0.703-0.417c0.051,0.352,0.091,0.72,0.116,1.075l-0.658,0.357L38.593,58.66z"/>
			<path fill="#FFFFFF" d="M39.341,60.965c-0.046,0.152-0.092,0.183-0.102,0.183l-0.01-0.001c-0.068-0.016-0.153-0.042-0.252-0.075
				l-0.174-1.092l0.628-0.34C39.454,60.18,39.432,60.662,39.341,60.965z"/>
		</g>
	</g>
</g>
</svg>
