<?xml version="1.0" encoding="utf-8"?>
<!-- Generator: Adobe Illustrator 17.0.0, SVG Export Plug-In . SVG Version: 6.00 Build 0)  -->
<!DOCTYPE svg PUBLIC "-//W3C//DTD SVG 1.1//EN" "http://www.w3.org/Graphics/SVG/1.1/DTD/svg11.dtd">
<svg version="1.1" xmlns="http://www.w3.org/2000/svg" xmlns:xlink="http://www.w3.org/1999/xlink" x="0px" y="0px"
	 width="32.833px" height="32.833px" viewBox="17.509 33.667 32.833 32.833" enable-background="new 17.509 33.667 32.833 32.833"
	 xml:space="preserve">
<g id="Calque_1">
	<g>
		<circle fill="#E0F2F1" cx="33.926" cy="50.083" r="13.549"/>
		<path fill="#34495E" d="M33.926,35.083c-8.284,0-15,6.716-15,15s6.716,15,15,15c8.284,0,15-6.716,15-15
			S42.21,35.083,33.926,35.083z M33.926,63.549c-7.437,0-13.465-6.029-13.465-13.465s6.029-13.465,13.465-13.465
			s13.465,6.029,13.465,13.465S41.363,63.549,33.926,63.549z"/>
	</g>
</g>
<g id="Calque_2">
	<g>
		<path fill="#34495E" d="M40.257,44.353c-2.059,0-3.866,1.091-4.877,2.726c-1.058-0.306-2.074-0.223-2.916-0.012
			c-1.012-1.627-2.816-2.714-4.869-2.714c-3.16,0-5.731,2.571-5.731,5.731c0,3.16,2.571,5.731,5.731,5.731
			c3.16,0,5.731-2.571,5.731-5.731c0-0.768-0.153-1.5-0.427-2.169c0.611-0.128,1.315-0.163,2.048,0.02
			c-0.27,0.664-0.42,1.39-0.42,2.149c0,3.16,2.571,5.731,5.731,5.731c3.16,0,5.73-2.571,5.73-5.731
			C45.988,46.923,43.417,44.353,40.257,44.353z M32.195,50.083c0,2.537-2.064,4.6-4.6,4.6s-4.6-2.064-4.6-4.6
			c0-2.537,2.064-4.601,4.6-4.601c1.555,0,2.931,0.776,3.764,1.96c-0.207,0.09-0.39,0.179-0.541,0.259
			c-0.16-0.087-0.343-0.136-0.537-0.136c-0.622,0-1.126,0.504-1.126,1.126s0.504,1.126,1.126,1.126c0.622,0,1.126-0.504,1.126-1.126
			c0-0.08-0.008-0.157-0.024-0.232c0.126-0.065,0.27-0.135,0.433-0.204C32.06,48.817,32.195,49.435,32.195,50.083z M40.257,54.684
			c-2.537,0-4.601-2.064-4.601-4.6c0-0.612,0.121-1.196,0.339-1.731c0.087,0.049,0.175,0.102,0.262,0.158
			c-0.01,0.059-0.016,0.12-0.016,0.182c0,0.622,0.504,1.126,1.126,1.126c0.622,0,1.126-0.504,1.126-1.126s-0.504-1.126-1.126-1.126
			c-0.214,0-0.413,0.061-0.583,0.164c-0.116-0.076-0.231-0.145-0.347-0.209c0.827-1.228,2.23-2.038,3.819-2.038
			c2.537,0,4.6,2.064,4.6,4.601C44.858,52.62,42.794,54.684,40.257,54.684z"/>
		<circle fill="#E84E40" cx="30.287" cy="48.696" r="1.136"/>
		<circle fill="#E84E40" cx="37.374" cy="48.696" r="1.136"/>
	</g>
</g>
</svg>
