<?xml version="1.0" encoding="utf-8"?>
<!-- Generator: Adobe Illustrator 17.0.0, SVG Export Plug-In . SVG Version: 6.00 Build 0)  -->
<!DOCTYPE svg PUBLIC "-//W3C//DTD SVG 1.1//EN" "http://www.w3.org/Graphics/SVG/1.1/DTD/svg11.dtd">
<svg version="1.1" xmlns="http://www.w3.org/2000/svg" xmlns:xlink="http://www.w3.org/1999/xlink" x="0px" y="0px"
	 width="32.833px" height="32.833px" viewBox="17.509 33.667 32.833 32.833" enable-background="new 17.509 33.667 32.833 32.833"
	 xml:space="preserve">
<g id="Calque_1">
	<g>
		<circle fill="#E0F2F1" cx="33.926" cy="50.083" r="13.549"/>
		<path fill="#34495E" d="M33.926,35.083c-8.284,0-15,6.716-15,15s6.716,15,15,15c8.284,0,15-6.716,15-15
			S42.21,35.083,33.926,35.083z M33.926,63.549c-7.437,0-13.465-6.029-13.465-13.465s6.029-13.465,13.465-13.465
			s13.465,6.029,13.465,13.465S41.363,63.549,33.926,63.549z"/>
	</g>
</g>
<g id="Calque_2">
	<g>
		<path fill="#34495E" d="M37.782,61.821c-0.213-0.598-0.393-1.103-0.569-1.593c-0.39,0.525-0.814,1.095-1.237,1.664
			c-0.063-0.027-0.124-0.057-0.187-0.085c0-0.415,0-0.832,0-1.304c-0.688,0.189-1.42,0.515-1.849-0.478
			c-0.464,0.844-1.111,0.783-1.855,0.466c0,0.466,0,0.887,0,1.308c-0.061,0.037-0.122,0.075-0.181,0.112
			c-0.435-0.559-0.867-1.117-1.286-1.656c-0.163,0.45-0.342,0.946-0.555,1.534c-0.527-1.221-0.911-2.329-0.445-3.591
			c-0.118,0.067-0.236,0.136-0.397,0.228c0-0.161,0-0.307,0-0.454c-0.828,0.944-1.906,1.249-3.212,1.339
			c0.342-0.441,0.659-0.846,0.958-1.227c-0.661-0.1-1.357-0.206-2.053-0.313c-0.004-0.08-0.006-0.159-0.01-0.24
			c0.364-0.189,0.728-0.378,1.099-0.57c-0.216-0.266-0.519-0.509-0.641-0.824c-0.11-0.285-0.024-0.649-0.024-1.042
			c-0.842-0.01-1.042-0.683-1.141-1.446c-0.384,0.25-0.724,0.47-1.064,0.69c-0.071-0.039-0.142-0.081-0.212-0.122
			c0.248-0.659,0.496-1.32,0.739-1.971c-0.446,0.079-0.962,0.171-1.609,0.287c0.812-1.042,1.481-2.004,2.755-2.014
			c-0.022-0.299-0.037-0.502-0.063-0.854c-1.131-0.071-1.888-0.944-2.669-2.016c0.604,0.104,1.123,0.193,1.597,0.273
			c-0.24-0.625-0.502-1.3-0.761-1.977c0.069-0.041,0.137-0.084,0.206-0.126c0.344,0.218,0.688,0.437,1.06,0.671
			c0.179-0.659,0.214-1.447,1.31-1.363c-0.499-0.877-0.086-1.418,0.553-1.888c-0.403-0.212-0.761-0.401-1.117-0.588
			c-0.004-0.079-0.008-0.155-0.01-0.234c0.659-0.124,1.318-0.246,1.986-0.37c-0.279-0.366-0.602-0.785-1.035-1.349
			c1.277,0.382,2.539,0.307,3.096,1.542c1.021-0.443,0.531-1.088,0.464-1.683c-0.035-0.315,0.118-0.655,0.207-0.977
			c0.1-0.368,0.224-0.728,0.395-1.276c0.238,0.631,0.425,1.123,0.6,1.587c0.405-0.537,0.822-1.086,1.239-1.636
			c0.061,0.027,0.124,0.053,0.187,0.081c0,0.415,0,0.828,0,1.318c0.671-0.197,1.373-0.513,1.843,0.492
			c0.464-0.932,1.145-0.773,1.851-0.488c0-0.456,0-0.865,0-1.274c0.059-0.041,0.118-0.083,0.175-0.122
			c0.435,0.547,0.867,1.094,1.286,1.621c0.169-0.445,0.366-0.952,0.592-1.544c0.242,0.694,0.543,1.237,0.594,1.802
			c0.053,0.572-0.144,1.168-0.248,1.857c0.214-0.124,0.334-0.193,0.484-0.281c0,0.161,0,0.305,0,0.57
			c0.511-0.421,0.916-0.893,1.428-1.135c0.494-0.234,1.1-0.232,1.825-0.364c-0.376,0.492-0.692,0.903-0.977,1.275
			c0.653,0.106,1.334,0.218,2.014,0.329c0.006,0.075,0.014,0.15,0.022,0.224c-0.356,0.199-0.714,0.395-1.103,0.612
			c0.468,0.476,1.07,0.958,0.509,1.839c0.934,0.035,1.227,0.627,1.267,1.454c0.417-0.267,0.755-0.484,1.094-0.702
			c0.069,0.041,0.14,0.083,0.208,0.122c-0.246,0.665-0.494,1.33-0.732,1.973c0.448-0.075,0.97-0.161,1.613-0.267
			c-0.846,0.987-1.465,2.01-2.781,1.985c0.031,0.305,0.053,0.519,0.09,0.883c1.121,0.043,1.872,0.915,2.6,1.971
			c-0.537-0.081-1.066-0.159-1.542-0.23c0.242,0.622,0.503,1.284,0.763,1.947c-0.069,0.051-0.138,0.102-0.206,0.153
			c-0.334-0.218-0.667-0.435-1.041-0.679c-0.236,0.62-0.222,1.503-1.367,1.335c0.541,0.889,0.122,1.43-0.525,1.908
			c0.403,0.224,0.769,0.427,1.135,0.63c-0.006,0.079-0.012,0.157-0.02,0.236c-0.678,0.102-1.359,0.204-2.036,0.307
			c0.301,0.372,0.635,0.787,1.086,1.343c-1.288-0.34-2.528-0.293-3.074-1.493c-0.297,0.185-0.478,0.297-0.712,0.445
			c0.071,0.49,0.266,1.092,0.215,1.672C38.335,60.603,38.03,61.131,37.782,61.821z M40.711,50.083
			c0.49-0.159,0.806-0.256,1.117-0.362c0.779-0.267,1.375-0.783,1.495-1.589c0.077-0.521-0.036-1.154-0.295-1.603
			c-0.12-0.203-0.804-0.077-1.316-0.106c0.024-0.262,0.059-0.663,0.089-0.981c-0.384-0.199-0.734-0.382-0.976-0.507
			c0.297-0.376,0.71-0.669,0.692-0.932c-0.024-0.356-0.311-0.779-0.612-1.011c-0.789-0.614-1.937-0.472-2.744,0.281
			c-0.25,0.232-0.429,0.539-0.639,0.81c-0.067-0.063-0.136-0.124-0.203-0.187c0.079-0.301,0.167-0.6,0.234-0.905
			c0.191-0.885,0.065-1.735-0.663-2.299c-0.39-0.303-0.99-0.48-1.477-0.446c-0.226,0.016-0.407,0.671-0.655,1.121
			c-0.232-0.171-0.555-0.409-0.832-0.614c-0.309,0.214-0.647,0.446-0.887,0.614c-0.197-0.46-0.258-0.964-0.496-1.07
			c-0.322-0.146-0.832-0.097-1.174,0.063c-0.913,0.423-1.324,1.522-1.084,2.641c0.067,0.317,0.163,0.629,0.246,0.942
			c-0.065,0.045-0.132,0.088-0.197,0.132c-0.232-0.281-0.435-0.598-0.702-0.842c-0.706-0.643-1.556-0.844-2.405-0.399
			c-0.393,0.206-0.775,0.659-0.899,1.076c-0.071,0.244,0.38,0.641,0.653,1.054c-0.266,0.128-0.628,0.303-0.934,0.45
			c0.024,0.409,0.045,0.803,0.063,1.111c-0.466-0.067-0.956-0.283-1.139-0.132c-0.297,0.248-0.517,0.728-0.551,1.127
			c-0.084,1.013,0.608,1.868,1.66,2.23c0.293,0.1,0.586,0.201,1.064,0.366c-0.498,0.136-0.779,0.201-1.052,0.291
			c-0.901,0.293-1.54,0.901-1.64,1.835c-0.051,0.484,0.165,1.076,0.454,1.481c0.122,0.171,0.743-0.016,1.223-0.043
			c-0.031,0.301-0.073,0.702-0.11,1.056c0.364,0.183,0.714,0.358,1.149,0.576c-1.105,0.574-1.143,1.29-0.24,1.896
			c0.844,0.567,1.937,0.454,2.755-0.313c0.25-0.234,0.439-0.533,0.655-0.804c0.061,0.057,0.122,0.112,0.183,0.169
			c-0.081,0.299-0.179,0.596-0.242,0.901c-0.195,0.946-0.047,1.835,0.771,2.407c0.382,0.267,0.969,0.403,1.426,0.336
			c0.232-0.033,0.376-0.651,0.606-1.09c0.212,0.155,0.539,0.393,0.836,0.612c0.295-0.211,0.628-0.445,0.871-0.618
			c0.193,0.446,0.262,0.973,0.494,1.062c0.36,0.134,0.889,0.08,1.245-0.099c0.889-0.446,1.269-1.514,1.031-2.592
			c-0.071-0.319-0.167-0.631-0.25-0.948c0.063-0.041,0.126-0.08,0.191-0.122c0.214,0.262,0.405,0.551,0.651,0.781
			c0.667,0.627,1.479,0.895,2.321,0.502c0.431-0.201,0.869-0.635,1.031-1.066c0.094-0.25-0.358-0.702-0.614-1.153
			c0.236-0.108,0.578-0.267,0.913-0.423c-0.024-0.38-0.049-0.792-0.069-1.119c0.443,0.081,0.907,0.307,1.076,0.167
			c0.305-0.25,0.576-0.704,0.608-1.094c0.079-0.95-0.405-1.678-1.245-2.114C41.78,50.39,41.334,50.296,40.711,50.083z"/>
		<path fill="#E84E40" d="M31.221,51.057c-0.647,0.012-1.442-0.543-1.426-0.995c0.016-0.433,0.775-0.96,1.387-0.962
			c0.643-0.002,1.235,0.452,1.249,0.962C32.442,50.575,31.874,51.043,31.221,51.057z"/>
		<path fill="#E84E40" d="M36.616,51.051c-0.663-0.014-1.221-0.472-1.206-0.989c0.016-0.507,0.612-0.968,1.243-0.964
			c0.61,0.004,1.359,0.529,1.379,0.964C38.051,50.522,37.274,51.065,36.616,51.051z"/>
		<path fill="#E84E40" d="M33.573,47.973c-0.033,0.409-0.155,0.85-0.785,0.865c-0.669,0.018-1.278-0.645-1.257-1.44
			c0.012-0.407-0.059-0.964,0.596-1.007C32.853,46.346,33.557,47.086,33.573,47.973z"/>
		<path fill="#E84E40" d="M31.518,53.102c0.008-1.088,0.576-1.776,1.233-1.778c0.618-0.002,0.799,0.415,0.818,0.93
			c0.028,0.771-0.692,1.593-1.394,1.469C31.868,53.669,31.632,53.218,31.518,53.102z"/>
		<path fill="#E84E40" d="M36.301,53.104c-0.108,0.11-0.344,0.566-0.647,0.618c-0.694,0.118-1.365-0.653-1.373-1.42
			c-0.006-0.529,0.142-0.954,0.769-0.977C35.713,51.301,36.287,51.985,36.301,53.104z"/>
		<path fill="#E84E40" d="M36.301,47.046c-0.006,1.127-0.543,1.788-1.22,1.792c-0.623,0.004-0.797-0.401-0.804-0.932
			c-0.01-0.789,0.675-1.591,1.392-1.479C35.967,46.474,36.199,46.94,36.301,47.046z"/>
		<path fill="#34495E" d="M36.873,46.752c0.582-0.614,0.549-0.832-0.104-1.149c-0.161-0.081-0.324-0.163-0.472-0.267
			c-0.635-0.443-0.83-0.37-1.074,0.456c-0.413-0.309-0.608-0.747-0.199-1.04c0.269-0.193,0.816-0.12,1.194-0.012
			c0.395,0.114,0.797,0.356,1.086,0.651c0.275,0.279,0.582,0.71,0.565,1.056C37.843,46.921,37.389,46.978,36.873,46.752z"/>
		<path fill="#34495E" d="M32.834,45.741c-0.507-0.801-0.643-0.84-1.337-0.36c-0.106,0.073-0.222,0.136-0.338,0.193
			c-0.739,0.362-0.785,0.559-0.338,1.357c-0.285-0.122-0.779-0.209-0.806-0.374c-0.055-0.324,0.043-0.814,0.271-1.019
			c0.444-0.399,0.995-0.726,1.558-0.93c0.289-0.104,0.773,0.022,1.023,0.224C33.007,44.946,32.853,45.426,32.834,45.741z"/>
		<path fill="#34495E" d="M38.126,48.899c0.254-0.187,0.521-0.539,0.753-0.515c0.25,0.024,0.635,0.376,0.667,0.622
			c0.09,0.706,0.099,1.441-0.002,2.146c-0.035,0.254-0.445,0.555-0.738,0.633c-0.161,0.045-0.435-0.329-0.602-0.578
			c0.873,0.016,0.972-0.094,0.893-0.954c-0.014-0.15,0.026-0.305,0.041-0.458c0.077-0.694-0.153-0.883-0.84-0.686
			C38.242,49.039,38.185,48.968,38.126,48.899z"/>
		<path fill="#34495E" d="M30.936,53.464c-0.549,0.521-0.523,0.773,0.11,1.094c0.161,0.083,0.326,0.159,0.474,0.264
			c0.639,0.445,0.844,0.373,1.271-0.423c0.041,0.311,0.224,0.787,0.096,0.897c-0.248,0.21-0.732,0.372-1.011,0.269
			c-0.588-0.216-1.154-0.56-1.632-0.968c-0.214-0.181-0.322-0.675-0.238-0.956c0.059-0.201,0.517-0.283,0.799-0.419
			C30.847,53.303,30.892,53.383,30.936,53.464z"/>
		<path fill="#34495E" d="M29.699,51.238c-0.228,0.203-0.494,0.584-0.657,0.545c-0.291-0.069-0.708-0.366-0.745-0.616
			c-0.102-0.698-0.095-1.428-0.01-2.132c0.031-0.252,0.389-0.61,0.639-0.647c0.228-0.035,0.511,0.299,0.792,0.484
			c-0.445,0.173-0.926,0.246-0.948,0.391c-0.086,0.547-0.067,1.123,0.02,1.672C28.809,51.055,29.27,51.104,29.699,51.238z"/>
		<path fill="#34495E" d="M36.987,53.376c0.348-0.201,0.803-0.165,0.86,0.309c0.041,0.339-0.236,0.797-0.505,1.07
			c-0.309,0.311-0.741,0.549-1.162,0.683c-0.352,0.112-0.818,0.136-1.131-0.014c-0.159-0.077-0.095-0.623-0.15-1.135
			c0.454,0.395,0.777,0.818,0.911,0.765c0.515-0.206,0.995-0.533,1.424-0.891C37.312,54.097,37.086,53.671,36.987,53.376z"/>
		<path fill="#E84E40" d="M29.179,54.548c-0.209,0.973,0.58,1.046,1.819,0.651c0.155,0.401,0.262,0.838,0.486,1.202
			c0.26,0.419,0.633,0.679,1.056,0.012c0.057,0.069,0.114,0.14,0.169,0.211c-0.153,0.222-0.262,0.564-0.47,0.643
			c-0.58,0.224-0.97-0.289-1.388-1.737c-1.369,0.346-2.006,0.275-2.15-0.311c-0.057-0.228,0.136-0.519,0.216-0.783
			C29.004,54.473,29.093,54.511,29.179,54.548z"/>
		<path fill="#E84E40" d="M27.586,52.272c-0.086-0.012-0.437,0.047-0.6-0.1c-0.462-0.415-0.15-1.164,0.834-2.067
			c-0.503-0.623-1.457-1.127-0.806-2.146c0.09-0.144,0.496-0.088,0.763-0.033c-0.816,0.629-0.759,0.962,0.364,2.142
			c-0.271,0.34-0.645,0.643-0.777,1.031C27.266,51.385,27.48,51.779,27.586,52.272z"/>
		<path fill="#E84E40" d="M35.296,56.536c0.751,0.519,1.044,0.267,1.471-1.178c0.616-0.041,1.194-0.047,1.756-0.148
			c0.106-0.018,0.146-0.415,0.281-0.846c0.148,0.305,0.386,0.56,0.358,0.781c-0.085,0.649-0.809,0.755-2.177,0.362
			c-0.387,1.438-0.775,1.965-1.371,1.762c-0.21-0.071-0.334-0.401-0.496-0.614C35.178,56.617,35.237,56.577,35.296,56.536z"/>
		<path fill="#E84E40" d="M38.683,45.623c0.085-0.826-0.25-1.107-1.87-0.673c-0.527-1.634-0.753-1.831-1.492-1.3
			c-0.063-0.035-0.124-0.071-0.187-0.106c0.146-0.22,0.246-0.558,0.448-0.639c0.616-0.246,1.058,0.33,1.39,1.752
			c0.749-0.139,1.587-0.7,2.154,0.271c0.1,0.171-0.108,0.523-0.173,0.792C38.862,45.688,38.773,45.656,38.683,45.623z"/>
		<path fill="#E84E40" d="M32.519,43.676c-0.726-0.56-0.948-0.372-1.491,1.274c-0.429-0.071-0.877-0.246-1.28-0.171
			c-0.281,0.051-0.503,0.441-0.862,0.785c-0.037-0.1-0.248-0.368-0.204-0.588c0.114-0.61,0.858-0.71,2.165-0.326
			c0.297-0.706,0.169-1.788,1.355-1.756c0.183,0.006,0.354,0.389,0.531,0.6C32.662,43.554,32.59,43.615,32.519,43.676z"/>
		<path fill="#E84E40" d="M40.061,50.077c0.979,1.07,1.235,1.703,0.781,2.102c-0.165,0.144-0.509,0.082-0.781,0.016
			c0.826-0.557,0.753-0.962-0.373-2.077c0.266-0.34,0.576-0.661,0.791-1.035c0.271-0.472,0.136-0.846-0.472-0.981
			c0.018-0.077,0.037-0.155,0.055-0.232c0.267,0.03,0.616-0.035,0.783,0.108C41.301,48.37,41.035,49.029,40.061,50.077z"/>
	</g>
</g>
</svg>
