<?xml version="1.0" encoding="utf-8"?>
<!-- Generator: Adobe Illustrator 17.0.0, SVG Export Plug-In . SVG Version: 6.00 Build 0)  -->
<!DOCTYPE svg PUBLIC "-//W3C//DTD SVG 1.1//EN" "http://www.w3.org/Graphics/SVG/1.1/DTD/svg11.dtd">
<svg version="1.1" xmlns="http://www.w3.org/2000/svg" xmlns:xlink="http://www.w3.org/1999/xlink" x="0px" y="0px"
	 width="32.833px" height="32.833px" viewBox="17.509 33.667 32.833 32.833" enable-background="new 17.509 33.667 32.833 32.833"
	 xml:space="preserve">
<g id="Calque_1">
	<g>
		<circle fill="#E0F2F1" cx="33.926" cy="50.083" r="13.549"/>
		<path fill="#34495E" d="M33.926,35.083c-8.284,0-15,6.716-15,15s6.716,15,15,15c8.284,0,15-6.716,15-15
			S42.21,35.083,33.926,35.083z M33.926,63.549c-7.437,0-13.465-6.029-13.465-13.465s6.029-13.465,13.465-13.465
			s13.465,6.029,13.465,13.465S41.363,63.549,33.926,63.549z"/>
	</g>
</g>
<g id="Calque_2">
	<g>
		<path fill="#E84E40" d="M35.856,40.375c0.013-0.047,0.008-0.1-0.019-0.144l-0.121-0.201l0.067-0.231
			c0.019-0.066,0-0.138-0.046-0.181l-0.165-0.154l0.007-0.244c0.002-0.069-0.034-0.132-0.089-0.159l-0.196-0.094l-0.053-0.236
			c-0.015-0.067-0.064-0.116-0.124-0.124l-0.212-0.027l-0.109-0.209c-0.031-0.059-0.09-0.091-0.15-0.078l-0.21,0.043l-0.156-0.166
			c-0.044-0.047-0.109-0.057-0.163-0.027l-0.19,0.109l-0.19-0.109c-0.054-0.031-0.119-0.02-0.163,0.027l-0.156,0.166l-0.21-0.043
			c-0.059-0.012-0.119,0.019-0.15,0.078l-0.109,0.209l-0.212,0.027c-0.06,0.008-0.109,0.057-0.124,0.124l-0.053,0.236l-0.196,0.094
			c-0.056,0.027-0.091,0.09-0.089,0.159l0.007,0.244l-0.165,0.154c-0.047,0.044-0.065,0.116-0.046,0.181l0.067,0.231l-0.121,0.201
			c-0.026,0.044-0.032,0.097-0.019,0.145l1.93-0.144L35.856,40.375z"/>
		<g>
			<path fill="#34495E" d="M33.927,50.209l-5.157,0.289c-0.017-0.199-0.026-0.4-0.026-0.604l8.724,0.012
				c1.016-0.094,1.287-1.132,1.393-1.547h0.132c0.055,0.221,0.116,0.696,0.116,1.534c0,0.203-0.009,0.405-0.026,0.604L33.927,50.209
				z M31.996,40.376c-0.381,0.16-0.747,0.366-1.085,0.615c-0.641,0.472-1.197,1.102-1.607,1.824
				c-0.418,0.736-0.697,1.579-0.796,2.441c-0.369,0.067-0.658,0.434-0.658,0.875v1.346c0,0.326,0.161,0.612,0.39,0.765
				c-0.018,0.404-0.023,0.832-0.023,1.306c0,0.357-0.018,0.74-0.049,1.143c-0.061-0.021-0.122-0.031-0.183-0.031
				c-0.05,0-0.1,0.007-0.148,0.022c-0.525,0.156-0.746,1.111-0.503,2.18c0.109,0.479,0.291,0.89,0.508,1.182
				c-0.181,2.244-0.142,4.524,1.065,6.085c0.474,0.613,1.112,1.084,1.896,1.399c0.847,0.341,1.897,0.513,3.122,0.513
				c1.225,0,2.275-0.173,3.121-0.513c0.784-0.315,1.422-0.786,1.896-1.399c1.207-1.561,1.246-3.841,1.065-6.085
				c0.217-0.292,0.4-0.703,0.508-1.182c0.242-1.069,0.022-2.024-0.503-2.18c-0.048-0.014-0.098-0.022-0.148-0.022
				c-0.061,0-0.122,0.011-0.183,0.031c-0.031-0.402-0.05-0.785-0.05-1.143c0-0.475-0.013-0.903-0.031-1.306
				c0.23-0.154,0.38-0.439,0.38-0.765V46.13c0-0.441-0.279-0.808-0.647-0.875c-0.068-0.592-0.213-1.169-0.435-1.712
				c-0.317-0.777-0.79-1.487-1.371-2.053c-0.491-0.478-1.063-0.859-1.673-1.115c0,0-0.794-0.36-1.988-0.349
				C32.674,40.037,31.996,40.376,31.996,40.376z M37.997,51.11l-0.102,1.319h-2.384l-0.524-1.311l0.837-0.003
				c0.029,0.332,0.274,0.592,0.571,0.592c0.298,0,0.544-0.262,0.571-0.596L37.997,51.11z M32.866,51.118l-0.524,1.311h-2.384
				l-0.102-1.319l1.029,0.002c0.027,0.334,0.273,0.595,0.571,0.595c0.297,0,0.543-0.261,0.571-0.593L32.866,51.118z M29.547,42.989
				c0.388-0.682,0.913-1.276,1.52-1.722c0.62-0.456,1.335-0.758,2.07-0.882c0.172-0.029,0.346-0.053,0.52-0.053h0.535
				c0.418,0.028,0.834,0.099,1.232,0.232c0.702,0.235,1.365,0.642,1.918,1.181c0.549,0.535,0.997,1.199,1.297,1.933
				c0.202,0.496,0.338,1.027,0.405,1.553H28.808C28.907,44.456,29.162,43.668,29.547,42.989z M28.141,46.13
				c0-0.305,0.228-0.566,0.495-0.566h10.581c0.267,0,0.475,0.261,0.475,0.566v1.346c0,0.289-0.187,0.527-0.434,0.551H28.594
				c-0.247-0.024-0.454-0.262-0.454-0.551L28.141,46.13L28.141,46.13z M27.616,52.782c-0.1-0.441-0.116-0.876-0.046-1.225
				c0.062-0.307,0.186-0.509,0.341-0.555c0.024-0.007,0.049-0.011,0.075-0.011c0.049,0,0.101,0.014,0.155,0.04
				c-0.037,0.416-0.083,0.849-0.13,1.294c-0.043,0.401-0.086,0.811-0.125,1.223C27.779,53.338,27.684,53.08,27.616,52.782z
				 M35.535,55.809c0,0.396-0.289,0.716-0.634,0.716h-0.286l0,0c-0.434,0-0.688-0.501-0.688-0.501s-0.254,0.501-0.688,0.501l0,0
				h-0.286c-0.346,0-0.63-0.32-0.63-0.716v-0.037c0-0.396,0.285-0.714,0.63-0.714h1.949c0.346,0,0.634,0.318,0.634,0.714V55.809z
				 M35.694,54.149c-0.092,0.011-3.444,0.011-3.536,0c-0.08-0.01-0.929,1.704-2.118-0.013c-0.301-0.477-0.567-0.996-0.78-1.547
				c-0.014-0.094-0.032-0.188-0.054-0.282c-0.067-0.297-0.163-0.568-0.278-0.801c-0.029-0.125-0.054-0.251-0.076-0.379h0.596
				l0.11,1.661h3.059l0.717-1.673l0.592-0.307l0.592,0.307l0.717,1.673h3.059l0.11-1.661h0.595c-0.022,0.128-0.048,0.255-0.077,0.38
				c-0.115,0.233-0.21,0.504-0.277,0.8c-0.021,0.094-0.039,0.187-0.053,0.28c-0.212,0.552-0.479,1.071-0.78,1.548
				C36.623,55.853,35.774,54.139,35.694,54.149z M40.236,52.782c-0.068,0.298-0.163,0.556-0.271,0.766
				c-0.039-0.412-0.082-0.822-0.125-1.223c-0.047-0.444-0.093-0.878-0.13-1.294c0.054-0.026,0.106-0.04,0.155-0.04
				c0.026,0,0.051,0.004,0.075,0.011c0.155,0.046,0.28,0.249,0.341,0.555C40.352,51.906,40.336,52.341,40.236,52.782z"/>
			<path fill="#E84E40" d="M34.945,55.418h-2.038c-0.067,0-0.121,0.062-0.121,0.138c0,0.077,0.054,0.138,0.121,0.138h2.038
				c0.067,0,0.121-0.062,0.121-0.138C35.066,55.48,35.012,55.418,34.945,55.418z"/>
		</g>
		<polygon fill="#E84E40" points="29.449,51.127 29.559,52.788 32.618,52.788 33.334,51.116 32.866,51.118 32.342,52.428 
			29.958,52.428 29.857,51.11 		"/>
		<polygon fill="#E84E40" points="34.519,51.116 35.236,52.788 38.295,52.788 38.405,51.127 37.997,51.11 37.895,52.429 
			35.511,52.429 34.988,51.118 		"/>
	</g>
</g>
</svg>
