<?xml version="1.0" encoding="utf-8"?>
<!-- Generator: Adobe Illustrator 17.0.0, SVG Export Plug-In . SVG Version: 6.00 Build 0)  -->
<!DOCTYPE svg PUBLIC "-//W3C//DTD SVG 1.1//EN" "http://www.w3.org/Graphics/SVG/1.1/DTD/svg11.dtd">
<svg version="1.1" xmlns="http://www.w3.org/2000/svg" xmlns:xlink="http://www.w3.org/1999/xlink" x="0px" y="0px"
	 width="32.833px" height="32.833px" viewBox="17.509 33.667 32.833 32.833" enable-background="new 17.509 33.667 32.833 32.833"
	 xml:space="preserve">
<g id="Calque_1">
	<g>
		<circle fill="#E0F2F1" cx="33.926" cy="50.083" r="13.549"/>
		<path fill="#34495E" d="M33.926,35.083c-8.284,0-15,6.716-15,15s6.716,15,15,15c8.284,0,15-6.716,15-15
			S42.21,35.083,33.926,35.083z M33.926,63.549c-7.437,0-13.465-6.029-13.465-13.465s6.029-13.465,13.465-13.465
			s13.465,6.029,13.465,13.465S41.363,63.549,33.926,63.549z"/>
	</g>
</g>
<g id="Calque_2">
	<g>
		<path fill="#34495E" d="M44.017,47.408c-0.079,0.608-0.185,1.216-0.317,1.798c-1.19,5.288-4.442,9.835-8.883,12.743
			c-0.079,0.053-0.159,0.106-0.212,0.132c-0.185,0.106-0.423,0.159-0.661,0.159s-0.449-0.053-0.661-0.159
			c-0.079-0.053-0.159-0.106-0.212-0.132c-2.855-1.877-5.235-4.415-6.874-7.403c-0.317-0.555-0.582-1.137-0.846-1.718
			c-1.058-2.459-1.666-5.182-1.666-8.037c0-0.502,0.026-1.005,0.053-1.481l0,0c0.026-0.476,0.317-0.899,0.714-1.137
			c0.053-0.026,0.079-0.053,0.132-0.079c2.802-1.401,5.975-2.168,9.333-2.168s6.53,0.767,9.333,2.168
			c0.053,0.026,0.106,0.053,0.159,0.079c0.37,0.212,0.635,0.608,0.687,1.058c0,0.026,0,0.053,0,0.079l0,0
			c0.026,0.476,0.053,0.978,0.053,1.481C44.202,45.664,44.123,46.536,44.017,47.408z M42.378,43.152
			c-0.212-0.106-0.423-0.185-0.661-0.291c-0.872-0.37-1.771-0.661-2.67-0.899c-1.666-0.423-3.384-0.661-5.103-0.661
			c-1.745,0-3.463,0.212-5.103,0.661c-0.925,0.238-1.798,0.529-2.67,0.899c-0.212,0.079-0.397,0.159-0.608,0.264l0,0
			c-0.026,0-0.079,0.026-0.106,0.053c-0.159,0.106-0.291,0.264-0.317,0.449c0,0.026,0,0.079,0,0.106c0,0.026,0,0.053,0,0.053
			c0,0.212,0,0.397,0,0.608c0,0.026,0,0.053,0,0.079c0,2.617,0.529,5.208,1.533,7.614c0.264,0.635,0.555,1.243,0.872,1.851
			c0.106,0.185,0.212,0.37,0.291,0.529c1.348,2.274,3.146,4.283,5.261,5.869c0.159,0.106,0.291,0.212,0.449,0.344
			c0,0,0.026,0.026,0.053,0.026c0.106,0.079,0.238,0.106,0.37,0.106s0.264-0.053,0.37-0.106l0.053-0.026
			c0.159-0.106,0.317-0.212,0.449-0.344c2.115-1.586,3.913-3.596,5.261-5.869c0.952-1.613,1.666-3.358,2.115-5.155
			c0.159-0.661,0.291-1.322,0.397-1.983c0.132-0.952,0.212-1.904,0.212-2.882c0-0.026,0-0.053,0-0.079c0-0.238,0-0.476-0.026-0.687
			l-0.026-0.159C42.722,43.337,42.589,43.258,42.378,43.152z M41.241,46.827c0,0.026,0,0.026,0,0.053
			c-0.053,0.37-0.344,0.687-0.74,0.767c-0.053,0-0.106,0-0.159,0.026l0,0c-0.82,0.106-1.639,0.264-2.512,0.449
			c-0.608-1.507-2.036-2.565-3.754-2.565c-2.221,0-4.045,1.824-4.045,4.098c0,0.317,0.026,0.608,0.106,0.899
			c-0.423,0.159-0.846,0.344-1.243,0.529c-0.106,0.053-0.238,0.106-0.344,0.159c-0.053,0.026-0.106,0.053-0.159,0.079
			c-0.053,0.026-0.106,0.026-0.185,0.026c-0.238,0-0.449-0.132-0.555-0.344c-0.026-0.053-0.026-0.106-0.053-0.159
			c-0.687-1.877-1.058-3.86-1.084-5.896l0,0c0-0.026,0-0.053,0-0.079c0-0.106,0.026-0.185,0.053-0.291
			c0.053-0.159,0.132-0.264,0.264-0.37c0.079-0.079,0.159-0.132,0.264-0.159c0.74-0.291,1.481-0.529,2.247-0.74
			c1.481-0.397,3.04-0.582,4.6-0.582c1.56,0,3.093,0.185,4.6,0.582c0.767,0.185,1.507,0.449,2.247,0.74
			c0.106,0.026,0.185,0.106,0.264,0.159c0.132,0.106,0.212,0.238,0.264,0.397c0.026,0.079,0.053,0.185,0.053,0.264
			c0,0.026,0,0.053,0,0.079l0,0C41.347,45.584,41.294,46.192,41.241,46.827L41.241,46.827z M29.555,52.881
			c0.053-0.026,0.106-0.053,0.132-0.053s0.053-0.026,0.079-0.026l0,0c0.397-0.185,0.82-0.344,1.216-0.529
			c0.74,0.899,1.851,1.481,3.093,1.481c2.115,0,3.86-1.666,4.019-3.754c0.529-0.132,1.031-0.238,1.533-0.317
			c0.053,0,0.079-0.026,0.106-0.026c0.026,0,0.026,0,0.053,0c0.344,0,0.635,0.291,0.635,0.635c0,0.053,0,0.079-0.026,0.132l0,0
			c-0.026,0.053-0.026,0.079-0.053,0.132c-0.37,1.11-0.872,2.194-1.481,3.199c-1.163,1.956-2.723,3.728-4.547,5.129
			c-0.026,0.026-0.053,0.026-0.079,0.053c-0.026,0.026-0.079,0.053-0.132,0.053c-0.079,0.026-0.159,0.053-0.238,0.053
			s-0.159-0.026-0.238-0.053c-0.053-0.026-0.079-0.026-0.132-0.053c-0.026-0.026-0.053-0.026-0.079-0.053
			c-1.692-1.295-3.146-2.882-4.283-4.68l0,0C29.053,54.071,29,53.886,29,53.727C29.106,53.331,29.291,53.04,29.555,52.881z"/>
		<path fill="#E84E40" d="M34.103,53.066c-1.904,0-3.463-1.533-3.463-3.463s1.533-3.463,3.463-3.463s3.463,1.533,3.463,3.463
			S36.006,53.066,34.103,53.066z M31.036,49.18c0.185-0.106,0.397-0.106,0.582,0.026c0.185,0.132,0.397,0.238,0.582,0.37
			c0.212,0.106,0.291,0.291,0.291,0.529c0,0.238,0,0.449,0,0.687c0,0.238-0.106,0.397-0.291,0.502
			c-0.159,0.079-0.317,0.159-0.476,0.264c0.159,0.185,0.317,0.344,0.529,0.476c0.079-0.079,0.159-0.159,0.291-0.185
			c0.212-0.053,0.449-0.132,0.661-0.212c0.212-0.079,0.423-0.026,0.582,0.132c0.159,0.159,0.344,0.317,0.502,0.476
			c0.106,0.106,0.185,0.212,0.185,0.344c0.291-0.053,0.582-0.132,0.846-0.264c-0.026-0.053-0.079-0.106-0.106-0.185
			c-0.132-0.185-0.132-0.397-0.026-0.582c0.106-0.212,0.212-0.397,0.317-0.608c0.106-0.212,0.264-0.317,0.502-0.317
			c0.238,0,0.449,0,0.687-0.026c0.053,0,0.079,0,0.132,0c0.079-0.238,0.132-0.502,0.159-0.767c-0.026-0.026-0.079-0.079-0.106-0.132
			c-0.079-0.212-0.212-0.423-0.344-0.608c-0.132-0.185-0.132-0.397-0.026-0.582c0.053-0.106,0.106-0.212,0.159-0.291
			c-0.132-0.264-0.317-0.502-0.502-0.714c-0.106,0.106-0.238,0.159-0.423,0.132c-0.238-0.026-0.449-0.026-0.687-0.026
			c-0.238,0-0.397-0.106-0.502-0.317c-0.106-0.212-0.212-0.423-0.317-0.608c-0.026-0.026-0.026-0.053-0.053-0.079
			c-0.053,0-0.132,0-0.185,0c-0.212,0-0.449,0.026-0.661,0.079c0,0.053,0.026,0.132,0,0.212c-0.026,0.238-0.053,0.449-0.079,0.687
			c-0.026,0.238-0.132,0.397-0.344,0.476c-0.212,0.106-0.423,0.185-0.635,0.291c-0.212,0.106-0.397,0.079-0.582-0.053
			c-0.106-0.079-0.212-0.159-0.291-0.212C31.247,48.387,31.115,48.757,31.036,49.18z M33.362,48.704
			c0.079-0.212,0.212-0.344,0.449-0.397c0.238-0.026,0.449-0.079,0.687-0.132c0.238-0.053,0.423,0.026,0.555,0.185
			c0.159,0.185,0.291,0.344,0.449,0.529c0.159,0.185,0.185,0.37,0.106,0.582c-0.079,0.212-0.159,0.423-0.238,0.661
			c-0.079,0.212-0.212,0.344-0.449,0.397c-0.238,0.026-0.449,0.079-0.687,0.132c-0.238,0.053-0.423-0.026-0.555-0.185
			c-0.159-0.185-0.291-0.344-0.449-0.529c-0.159-0.185-0.185-0.37-0.106-0.582C33.204,49.153,33.283,48.915,33.362,48.704z"/>
	</g>
</g>
</svg>
